<svg width="61" height="58" viewBox="0 0 61 58" fill="none" xmlns="http://www.w3.org/2000/svg">
<path fill-rule="evenodd" clip-rule="evenodd" d="M61 36.9075H20.9077V36.0066C21.2477 31.0314 25.8868 26.3467 31.3039 26.3584C36.479 26.37 40.1154 31.5719 40.1154 31.5719L48.7654 26.3119C48.6444 26.0968 48.339 25.3587 48.2064 25.1436C46.8464 22.8013 41.4178 15.4605 30.1859 15.8208C18.7927 16.187 10.4193 24.8879 10.4193 35.9659V36.9075H0L19.928 12.3103H41.2391L61 36.9133M22.6596 8.78805L30.4914 0L38.3404 8.78805H22.6539H22.6596Z" fill="#004B85"/>
<path d="M20.9308 36.9075C21.2823 42.9813 26.1 47.0149 31.3904 47.3753C35.4935 47.6543 38.8994 44.4169 40.0808 42.1734L48.7942 47.445C45.5036 52.8911 38.4268 58 31.1771 58C20.6945 58 10.5922 50.1419 10.4193 36.9075L20.9365 36.9075" fill="#00B1E8"/>
</svg>
