<svg width="10" height="9" viewBox="0 0 10 9" fill="none" xmlns="http://www.w3.org/2000/svg">
<path d="M9.68376 3.71126L6.22983 0.312036C5.95651 0.0429547 5.558 -0.0621608 5.18448 0.0362924C4.81097 0.134746 4.51923 0.421963 4.41922 0.789867C4.31922 1.15759 4.42599 1.54992 4.69931 1.819L7.42162 4.5L4.69931 7.181C4.49629 7.38087 4.38238 7.6518 4.38238 7.93439C4.38238 8.21698 4.49648 8.48792 4.69931 8.68778C4.90214 8.88765 5.17753 8.9998 5.46457 8.9998C5.75162 8.9998 6.02682 8.88747 6.22983 8.68778L9.68357 5.28855C9.88659 5.0885 10.0003 4.81701 9.99938 4.53405V4.49982C10.0095 4.2052 9.89524 3.91983 9.68376 3.71126Z" fill="#004B85"/>
<path d="M5.61834 4.53425V4.50002C5.62849 4.2054 5.51401 3.91985 5.30253 3.71128L1.84767 0.312237C1.57416 0.0431563 1.17564 -0.0619593 0.802315 0.036494C0.428801 0.134947 0.137057 0.422164 0.0368644 0.789884C-0.0631404 1.1576 0.0436316 1.54994 0.316953 1.81902L3.0402 4.50002L0.316953 7.18102C0.114124 7.38089 2.05017e-05 7.652 2.05017e-05 7.93459C2.05017e-05 8.21719 0.114124 8.48812 0.316953 8.68798C0.519782 8.88785 0.795172 9 1.08222 9C1.36926 9 1.64465 8.88767 1.84748 8.68798L5.30122 5.28875C5.50423 5.08852 5.61852 4.81722 5.61834 4.53425Z" fill="#004B85"/>
</svg>
