<svg width="221" height="50" viewBox="0 0 221 50" fill="none" xmlns="http://www.w3.org/2000/svg">
<path d="M85.3301 10.6123V17.3164H84.097C83.9229 16.8905 83.6992 16.4546 83.4257 16.0136C83.3014 15.7982 83.1721 15.5927 83.0329 15.3923C82.8937 15.1919 82.7345 14.9815 82.5456 14.761C81.9091 13.9643 81.0887 13.2779 80.0743 12.7117C79.06 12.1455 77.9561 11.8599 76.7628 11.8599C75.7285 11.8599 74.928 11.9902 74.3562 12.2507C73.7844 12.5113 73.3368 13.1226 73.0136 14.0796C72.6904 15.0366 72.5264 16.4546 72.5264 18.3385V23.6046C72.5264 25.0526 72.7203 26.1549 73.1031 26.9215C73.491 27.6881 74.023 28.2142 74.7092 28.5049C75.3954 28.7955 76.2208 28.9358 77.1904 28.9358C79.1545 28.9358 80.7904 28.4046 82.0881 27.3474C83.3859 26.2852 84.2213 25.0225 84.5942 23.5495H85.7677C85.5787 24.9775 84.982 26.195 83.9776 27.2071C82.9732 28.2193 81.6406 28.9859 79.9848 29.512C78.3291 30.0381 76.5142 30.3036 74.5352 30.3036C72.4219 30.3036 70.4977 30.0732 68.7722 29.6072C67.0419 29.1412 65.5303 28.4698 64.2375 27.5879C62.9447 26.7061 61.9502 25.6288 61.2541 24.3612C60.558 23.0935 60.2099 21.7407 60.2099 20.3026C60.2099 18.4938 60.8265 16.8454 62.0546 15.3573C63.2878 13.8691 64.9734 12.7067 67.1214 11.8649C69.2695 11.0282 71.6015 10.6073 74.1274 10.6073C75.0622 10.6073 75.8678 10.6624 76.5539 10.7726C77.2401 10.8829 78.1351 11.0733 79.239 11.3388L80.0942 11.6044C80.5069 11.7397 80.845 11.8048 81.1185 11.8048C81.2776 11.8048 81.6605 11.6845 82.2572 11.444L84.3257 10.6073H85.3152" fill="#004B85"/>
<path d="M112.593 30.3036H87.2146V29.537H89.9842V11.3789H87.2146V10.6123H112.265L112.449 17.5168H111.211C111.027 16.9807 110.808 16.4646 110.555 15.9735C110.301 15.4825 109.998 14.9915 109.645 14.5005C108.978 13.5535 108.123 12.7969 107.074 12.2307C106.03 11.6595 104.861 11.3789 103.574 11.3789H101.296V19.992H101.918C102.708 19.992 103.554 19.6763 104.449 19.04C105.344 18.4036 105.876 17.4366 106.035 16.1289H107.253V24.7971H106.035C105.925 23.8701 105.632 23.1035 105.16 22.5023C104.687 21.901 104.14 21.4601 103.529 21.1795C102.917 20.8989 102.38 20.7636 101.918 20.7636H101.296V29.547H103.827C107.253 29.547 109.864 27.3023 111.659 22.8129H112.772L112.588 30.3137" fill="#004B85"/>
<path d="M121.902 30.3036H114.249V29.537H115.194C115.92 29.537 116.447 29.2815 116.77 28.7654C117.098 28.2543 117.257 27.613 117.257 26.8464V12.9021L115.955 11.6695C115.701 11.4741 115.318 11.3789 114.811 11.3789H114.249V10.6123H128.371L138.43 21.1494V12.7919C138.43 12.396 138.181 12.0603 137.689 11.7847C137.196 11.5092 136.6 11.3739 135.899 11.3739H135.158V10.6073H142.81V11.3739H141.706C141.1 11.3739 140.667 11.4941 140.404 11.7296C140.135 11.9651 139.971 12.3359 139.906 12.847C139.842 13.3581 139.807 14.0144 139.807 14.8161V30.3036H133.567L118.56 14.5005V26.8414C118.56 28.6351 119.281 29.537 120.723 29.537H121.907V30.3036" fill="#004B85"/>
<path d="M166.573 12.1706L170.188 10.6123H171.63V17.2312H170.561C170.287 16.7852 169.974 16.3594 169.621 15.9585C169.447 15.7531 169.258 15.5477 169.059 15.3372C168.86 15.1268 168.641 14.9163 168.403 14.7009C167.528 13.8892 166.503 13.2178 165.32 12.6866C164.141 12.1555 162.918 11.89 161.655 11.89C160.183 11.89 159.08 12.1856 158.349 12.7768C157.618 13.3681 157.16 14.0846 156.981 14.9314C156.802 15.7781 156.708 16.7903 156.708 17.9727V26.7913C156.708 27.618 156.837 28.2944 157.101 28.8255C157.364 29.3566 157.966 29.6222 158.901 29.6222C159.835 29.6222 160.462 29.3667 160.76 28.8506C160.9 28.6001 161.009 28.2994 161.098 27.9437C161.138 27.7683 161.168 27.5829 161.193 27.3925C161.218 27.2021 161.233 27.0017 161.233 26.7863V20.8788H159.01V20.1423H174.394V20.8788H172.316V28.1541C170.794 28.1541 169.328 28.3445 167.915 28.7303L166.061 29.2113L163.793 29.7575L162.56 29.998L161.342 30.1734L160.049 30.2786L158.702 30.3036C156.618 30.3036 154.694 30.0782 152.924 29.6272C151.159 29.1763 149.617 28.5199 148.31 27.6581C147.673 27.2322 147.111 26.7662 146.624 26.2601C146.41 26.0397 146.191 25.7791 145.968 25.4835C145.744 25.1879 145.535 24.8873 145.351 24.5866C144.665 23.339 144.322 22.0463 144.322 20.7185C144.322 18.9999 144.754 17.4917 145.615 16.204C146.475 14.9113 147.623 13.8591 149.05 13.0374C150.477 12.2157 152.039 11.6094 153.719 11.2085C155.405 10.8077 157.051 10.6073 158.662 10.6073C161.72 10.6073 164.355 11.1284 166.563 12.1655" fill="#004B85"/>
<path fill-rule="evenodd" clip-rule="evenodd" d="M184.836 4.55456C185.324 4.53452 185.806 4.61469 186.273 4.78505C186.741 4.95541 187.138 5.22096 187.467 5.5717C187.755 5.92745 187.904 6.30324 187.919 6.69406C187.939 7.32037 187.666 7.87153 187.094 8.3325C186.522 8.79848 185.821 9.04399 184.995 9.07406C184.195 9.10412 183.489 8.89869 182.877 8.46778C182.266 8.03688 181.952 7.51578 181.932 6.9045C181.913 6.28821 182.186 5.74707 182.753 5.2861C183.32 4.82513 184.016 4.57962 184.841 4.54955M193.951 30.2986H175.911V29.532H178.879V11.424H175.911V10.6574H193.951V11.424H190.982V29.537H193.951V30.3036V30.2986Z" fill="#004B85"/>
<path d="M196.521 10.6123H220.995V11.4991L208.395 29.537H210.643C211.911 29.537 213.154 29.2965 214.362 28.8205C215.57 28.3445 216.644 27.608 217.584 26.6059C218.524 25.6088 219.23 24.3311 219.702 22.7778H221L220.697 30.3036H195.442V29.2214L207.848 11.3739H206.516C205.725 11.3739 204.994 11.439 204.323 11.5693C203.652 11.6996 202.975 11.905 202.304 12.1956C201.046 12.7317 199.992 13.4633 199.152 14.3952C198.306 15.3222 197.655 16.3744 197.197 17.5368H196.054L196.531 10.6073" fill="#004B85"/>
<path fill-rule="evenodd" clip-rule="evenodd" d="M52.6321 31.8168H18.0396V31.0402C18.333 26.7512 22.3357 22.7127 27.0097 22.7227C31.4748 22.7327 34.6124 27.2172 34.6124 27.2172L42.0758 22.6826C41.9714 22.4972 41.7079 21.8609 41.5935 21.6755C40.42 19.6563 35.7361 13.328 26.045 13.6386C16.2148 13.9543 8.98997 21.4551 8.98997 31.0051V31.8168H0L17.1943 10.6123H35.582L52.6321 31.8218M19.5512 7.57591L26.3086 0L33.0809 7.57591H19.5462H19.5512Z" fill="#004B85"/>
<path d="M18.0595 31.8168C18.3628 37.0528 22.5197 40.5301 27.0843 40.8408C30.6246 41.0813 33.5632 38.2904 34.5825 36.3563L42.1007 40.9009C39.2615 45.5957 33.1555 50 26.9003 50C17.8556 50 9.13914 43.2258 8.98997 31.8168H18.0645" fill="#00B1E8"/>
<path d="M68.0314 34.7881V39.047H72.2678V34.7881H74.0976V45.4154H72.2678V40.7355H68.0314V45.4154H66.2016V34.7881H68.0314ZM98.7454 35.3392C99.4316 35.8102 99.9636 36.4415 100.337 37.2482C100.695 38.0499 100.889 38.9668 100.889 39.989C100.874 41.1865 100.665 42.1936 100.262 43.0153C99.8443 43.8521 99.2824 44.4834 98.5515 44.9243C97.8405 45.3653 97.02 45.5857 96.0852 45.5857C95.1355 45.5707 94.3151 45.3352 93.6339 44.8742C92.9527 44.4133 92.4157 43.7719 92.0427 42.9652C91.6698 42.1585 91.4759 41.2316 91.4759 40.1744C91.4759 39.1171 91.6847 38.11 92.0875 37.2733C92.4753 36.4515 93.0372 35.7902 93.7532 35.3342C94.4493 34.8632 95.2847 34.6227 96.2344 34.6077C97.214 34.6227 98.0493 34.8582 98.7454 35.3342V35.3392ZM94.6582 36.7121C94.2405 37.0578 93.9471 37.5489 93.7234 38.1451C93.5145 38.7464 93.4101 39.4078 93.4101 40.1493C93.4101 40.8909 93.5145 41.5372 93.7383 42.1184C93.9621 42.6997 94.2753 43.1757 94.688 43.5064C95.1057 43.8521 95.6079 44.0425 96.1897 44.0425C96.7714 44.0425 97.2736 43.8521 97.6913 43.5064C98.109 43.1606 98.4173 42.6846 98.6261 42.0884C98.8498 41.4871 98.9543 40.8257 98.9543 40.0691C98.9543 39.3927 98.8498 38.7614 98.641 38.1601C98.4322 37.5789 98.1338 37.0879 97.7211 36.7271C97.3084 36.3664 96.8013 36.176 96.1897 36.1609C95.5781 36.1609 95.0759 36.3513 94.6582 36.7121ZM118.267 34.7881H120.097V43.792H124.214V45.4154H118.267V34.7881ZM141.398 34.9283C141.801 34.8632 142.258 34.8031 142.751 34.773C143.243 34.7279 143.76 34.7079 144.312 34.7079C145.247 34.7079 146.052 34.8181 146.718 35.0235C147.375 35.229 147.937 35.5296 148.399 35.9355C148.891 36.3463 149.259 36.8825 149.543 37.5288C149.811 38.1752 149.96 38.9468 149.96 39.8487C149.96 40.7957 149.811 41.6124 149.528 42.3239C149.259 43.0354 148.871 43.6166 148.399 44.0726C147.892 44.5636 147.255 44.9093 146.495 45.1598C145.724 45.3953 144.844 45.5206 143.864 45.5206C143.327 45.5206 142.855 45.5056 142.452 45.4755C142.049 45.4605 141.696 45.4304 141.398 45.3803V34.9283ZM143.228 43.9323C143.362 43.9473 143.511 43.9623 143.69 43.9773H144.242C145.446 43.9773 146.365 43.6467 147.037 42.9702C147.693 42.2788 148.016 41.2667 148.031 39.9138C148.031 38.7313 147.733 37.8194 147.126 37.1881C146.52 36.5568 145.625 36.2261 144.481 36.2261C144.183 36.2261 143.944 36.2411 143.74 36.2561C143.536 36.2712 143.352 36.3012 143.233 36.3363V43.9373L143.228 43.9323ZM169.183 34.7881V45.4154H167.354V34.7881H169.183ZM168.264 34.1116C168.01 34.0966 167.801 34.0014 167.637 33.826C167.458 33.6356 167.368 33.4152 167.368 33.1646C167.368 32.8991 167.458 32.6736 167.637 32.5033C167.801 32.3129 168.025 32.2177 168.293 32.2177C168.547 32.2177 168.756 32.3129 168.905 32.5033C169.069 32.6786 169.159 32.8991 169.159 33.1646C169.159 33.4152 169.069 33.6356 168.905 33.826C168.741 34.0014 168.532 34.0916 168.278 34.1116H168.264ZM187.084 45.4154V34.7881H189.162L191.748 39.3426C192.091 39.9439 192.389 40.5401 192.683 41.1414C192.966 41.7427 193.235 42.3239 193.453 42.9051H193.483C193.423 42.1936 193.379 41.4871 193.364 40.7756C193.334 40.0491 193.319 39.2925 193.319 38.4908V34.7881H195.015V45.4154H193.125L190.51 40.7355C190.182 40.1543 189.868 39.5531 189.56 38.9217C189.252 38.2904 188.963 37.6741 188.715 37.0779L188.67 37.0929C188.7 37.7693 188.73 38.4808 188.745 39.2073C188.759 39.9489 188.759 40.7506 188.759 41.6174V45.4154H187.079H187.084ZM220.96 44.9243C220.632 45.0646 220.175 45.1899 219.608 45.3202C219.041 45.4504 218.419 45.5106 217.733 45.5256C216.888 45.5256 216.142 45.4154 215.491 45.1799C214.849 44.9444 214.287 44.5786 213.81 44.1076C213.363 43.6517 213.024 43.0805 212.771 42.4191C212.532 41.7427 212.413 41.0011 212.413 40.1944C212.428 39.0771 212.651 38.1 213.124 37.2783C213.586 36.4415 214.238 35.8102 215.073 35.3542C215.903 34.9133 216.873 34.6778 217.987 34.6778C218.613 34.6778 219.145 34.743 219.608 34.8331C220.07 34.9434 220.408 35.0536 220.647 35.1638L220.244 36.7422C219.976 36.6169 219.662 36.5067 219.294 36.4115C218.936 36.3313 218.494 36.2862 217.972 36.2862C216.888 36.2862 216.008 36.6169 215.341 37.2633C214.685 37.9096 214.347 38.8566 214.332 40.0992C214.347 41.3118 214.66 42.2587 215.282 42.9201C215.908 43.5966 216.754 43.9272 217.808 43.9473C218.136 43.9473 218.419 43.9323 218.653 43.8822C218.887 43.832 219.071 43.7869 219.19 43.7268V41.0763H217.42V39.548H220.955V44.9243H220.96Z" fill="#00B1E8"/>
</svg>
