<svg width="145" height="43" viewBox="0 0 145 43" fill="none" xmlns="http://www.w3.org/2000/svg">
<path d="M108.094 15.5212C108.094 15.7084 108.051 15.8582 107.971 15.9768C107.891 16.0954 107.786 16.1827 107.663 16.2451C107.54 16.3075 107.398 16.3512 107.244 16.3762C107.09 16.4012 106.936 16.4136 106.789 16.4136C106.77 16.4136 106.709 16.4136 106.61 16.4012C106.505 16.3949 106.395 16.3762 106.277 16.345C106.16 16.3138 106.056 16.2701 105.963 16.2139C105.871 16.1578 105.828 16.0766 105.828 15.9705C105.828 15.8956 105.853 15.827 105.908 15.7771C105.957 15.7209 106.025 15.6959 106.099 15.6959C106.142 15.6959 106.179 15.7022 106.21 15.7209C106.296 15.7771 106.388 15.8145 106.481 15.827C106.573 15.8395 106.653 15.8457 106.721 15.8457H106.826C106.869 15.8457 106.924 15.8457 106.98 15.8332C107.035 15.827 107.09 15.8083 107.14 15.7833C107.189 15.7583 107.226 15.7271 107.263 15.6897C107.294 15.6522 107.312 15.6023 107.312 15.5337C107.312 15.4276 107.269 15.3527 107.177 15.3028C107.084 15.2528 106.998 15.2279 106.912 15.2279C106.77 15.2279 106.635 15.2528 106.505 15.309C106.462 15.3215 106.425 15.3277 106.401 15.3277C106.364 15.3277 106.333 15.3152 106.308 15.2965C106.277 15.2778 106.265 15.2466 106.265 15.2029C106.265 15.1779 106.271 15.1592 106.29 15.1343C106.302 15.1093 106.314 15.0906 106.327 15.0656L106.752 14.4602C106.481 14.4415 106.234 14.4103 106 14.3541C105.68 14.2792 105.397 14.1856 105.144 14.0733C104.898 13.961 104.689 13.8424 104.516 13.7176C104.344 13.5927 104.208 13.4742 104.104 13.3743C104.011 13.2807 103.968 13.1684 103.968 13.0435C103.968 12.925 103.993 12.8376 104.036 12.7752C104.079 12.7128 104.134 12.6628 104.202 12.6379C104.27 12.6004 104.35 12.5817 104.442 12.5755C104.504 12.5755 104.566 12.588 104.627 12.6129C104.689 12.6379 104.738 12.6691 104.787 12.719C104.898 12.8001 105.021 12.8875 105.169 12.9749C105.311 13.0623 105.477 13.1496 105.668 13.2308C105.859 13.3119 106.074 13.3743 106.321 13.4242C106.567 13.4742 106.844 13.5054 107.152 13.5054C107.374 13.5054 107.614 13.4804 107.866 13.4367C108.119 13.393 108.353 13.3244 108.562 13.2308C108.772 13.1372 108.944 13.0186 109.086 12.875C109.221 12.7315 109.295 12.5505 109.295 12.3446C109.295 12.0637 109.227 11.8515 109.086 11.6955C108.944 11.5457 108.772 11.4334 108.562 11.3647C108.353 11.2961 108.125 11.2524 107.879 11.2399C107.632 11.2274 107.404 11.2212 107.195 11.2212H106.197C105.97 11.2212 105.736 11.19 105.502 11.1213C105.268 11.0527 105.052 10.9528 104.861 10.8093C104.67 10.672 104.51 10.491 104.393 10.2726C104.27 10.0541 104.215 9.79202 104.215 9.47997C104.215 9.118 104.307 8.80595 104.485 8.53759C104.664 8.27547 104.898 8.05704 105.175 7.88229C105.452 7.70755 105.76 7.58273 106.093 7.5016C106.425 7.42046 106.746 7.37678 107.06 7.37678C107.417 7.37678 107.731 7.40174 107.996 7.45791C108.26 7.51408 108.494 7.57649 108.685 7.65138C108.876 7.72627 109.036 7.8074 109.153 7.88853L109.437 8.082C109.572 8.1881 109.646 8.31916 109.646 8.48142C109.646 8.61248 109.597 8.73106 109.504 8.82467C109.412 8.91829 109.301 8.96197 109.172 8.96197C109.086 8.96197 108.993 8.93077 108.895 8.8746C108.747 8.78723 108.611 8.71234 108.488 8.64369C108.365 8.57504 108.242 8.51887 108.106 8.47518C107.977 8.43149 107.829 8.40029 107.669 8.38157C107.509 8.36284 107.312 8.35036 107.084 8.35036C106.875 8.35036 106.659 8.36909 106.431 8.41277C106.204 8.45646 106 8.51887 105.816 8.61248C105.631 8.69985 105.477 8.81843 105.36 8.96197C105.237 9.10551 105.181 9.27402 105.181 9.47373C105.181 9.99173 105.563 10.2538 106.327 10.2538H107.214C107.608 10.2538 107.989 10.2851 108.359 10.3412C108.728 10.3974 109.055 10.5097 109.338 10.6657C109.621 10.8218 109.849 11.034 110.022 11.3086C110.194 11.5769 110.274 11.9264 110.274 12.3446C110.274 12.7003 110.188 13.0123 110.015 13.2807C109.843 13.5491 109.609 13.7737 109.32 13.9485C109.024 14.1232 108.685 14.2605 108.304 14.3479C108.045 14.4041 107.78 14.4415 107.503 14.4602L107.226 14.8472C107.343 14.8472 107.454 14.8534 107.565 14.8721C107.675 14.8909 107.774 14.9221 107.86 14.9782C107.946 15.0282 108.014 15.103 108.07 15.1904C108.119 15.2778 108.15 15.3964 108.15 15.5337L108.094 15.5212Z" fill="white"/>
<path d="M118.083 14.3354C117.99 14.4165 117.892 14.4602 117.775 14.4602H117.689C117.572 14.4602 117.473 14.4165 117.381 14.3354C117.288 14.2543 117.245 14.1419 117.245 14.0109V11.5894H113.427V14.0109C113.427 14.1482 113.384 14.2543 113.292 14.3354C113.199 14.4165 113.101 14.4602 112.984 14.4602H112.898C112.781 14.4602 112.682 14.4165 112.59 14.3354C112.497 14.2543 112.454 14.1419 112.454 14.0109V10.0791C112.454 9.75457 112.485 9.43004 112.553 9.10552C112.62 8.77475 112.756 8.48142 112.959 8.22554C113.162 7.96967 113.458 7.75747 113.834 7.59521C114.215 7.43295 114.714 7.35181 115.33 7.35181C115.946 7.35181 116.451 7.43295 116.826 7.59521C117.208 7.75747 117.498 7.96967 117.701 8.22554C117.904 8.48142 118.04 8.77475 118.107 9.10552C118.175 9.43628 118.206 9.76081 118.206 10.0791V14.0109C118.206 14.1482 118.163 14.2543 118.07 14.3354H118.083ZM117.245 10.0791C117.245 9.82946 117.214 9.59231 117.159 9.38012C117.104 9.16792 116.999 8.9807 116.851 8.82467C116.703 8.66865 116.506 8.55007 116.26 8.4627C116.014 8.37533 115.706 8.33164 115.336 8.33164C114.967 8.33164 114.653 8.37533 114.406 8.4627C114.166 8.55007 113.969 8.67489 113.821 8.82467C113.673 8.9807 113.569 9.16792 113.513 9.38012C113.458 9.59231 113.427 9.82946 113.427 10.0791V10.6096H117.245V10.0791Z" fill="white"/>
<path d="M135.837 14.3354C135.744 14.4165 135.646 14.4602 135.529 14.4602H135.443C135.326 14.4602 135.227 14.4165 135.135 14.3354C135.042 14.2543 134.999 14.1419 134.999 14.0109V11.5894H131.181V14.0109C131.181 14.1482 131.138 14.2543 131.046 14.3354C130.953 14.4165 130.855 14.4602 130.738 14.4602H130.651C130.534 14.4602 130.436 14.4165 130.344 14.3354C130.251 14.2543 130.208 14.1419 130.208 14.0109V10.0791C130.208 9.75457 130.239 9.43004 130.307 9.10552C130.374 8.77475 130.51 8.48142 130.713 8.22554C130.916 7.96967 131.212 7.75747 131.588 7.59521C131.969 7.43295 132.468 7.35181 133.084 7.35181C133.7 7.35181 134.205 7.43295 134.58 7.59521C134.962 7.75747 135.252 7.96967 135.455 8.22554C135.658 8.48142 135.794 8.77475 135.861 9.10552C135.929 9.43628 135.96 9.76081 135.96 10.0791V14.0109C135.96 14.1482 135.917 14.2543 135.824 14.3354H135.837ZM134.999 10.0791C134.999 9.82946 134.968 9.59231 134.913 9.38012C134.858 9.16792 134.753 8.9807 134.605 8.82467C134.457 8.66865 134.26 8.55007 134.014 8.4627C133.768 8.37533 133.46 8.33164 133.09 8.33164C132.721 8.33164 132.407 8.37533 132.16 8.4627C131.92 8.55007 131.723 8.67489 131.575 8.82467C131.427 8.9807 131.323 9.16792 131.267 9.38012C131.212 9.59231 131.181 9.82946 131.181 10.0791V10.6096H134.999V10.0791Z" fill="white"/>
<path d="M127.609 12.3945C127.609 12.7315 127.548 13.0311 127.425 13.2932C127.301 13.5491 127.135 13.7675 126.92 13.9422C126.704 14.117 126.458 14.248 126.168 14.3354C125.879 14.4228 125.565 14.4665 125.22 14.4665H121.734C121.599 14.4665 121.476 14.4165 121.377 14.3104C121.273 14.2044 121.223 14.0858 121.223 13.9485V7.86981C121.23 7.73251 121.279 7.60769 121.383 7.50784C121.482 7.40174 121.599 7.35181 121.741 7.35181H125.226C125.485 7.35181 125.737 7.38926 125.977 7.46415C126.224 7.53904 126.439 7.65762 126.63 7.81988C126.821 7.98215 126.975 8.18186 127.092 8.42525C127.209 8.66865 127.264 8.95573 127.264 9.29274C127.264 9.48621 127.246 9.66096 127.203 9.8045C127.16 9.95428 127.111 10.0853 127.049 10.1977C126.987 10.31 126.92 10.4161 126.846 10.4972C126.772 10.5846 126.704 10.6533 126.643 10.7157C126.741 10.7656 126.846 10.8343 126.957 10.9279C127.067 11.0215 127.172 11.1401 127.271 11.2836C127.369 11.4271 127.443 11.5894 127.511 11.7766C127.572 11.9639 127.603 12.1636 127.603 12.3882L127.609 12.3945ZM126.261 9.29274C126.261 9.00566 126.174 8.78723 126.008 8.6312C125.842 8.47518 125.577 8.39405 125.22 8.39405H122.227V10.3412H125.22C125.565 10.3412 125.83 10.2476 126.002 10.0604C126.175 9.87315 126.261 9.61727 126.261 9.29898V9.29274ZM126.599 12.3945C126.599 12.2385 126.575 12.0949 126.532 11.9639C126.489 11.8328 126.409 11.7267 126.304 11.6393C126.193 11.5457 126.051 11.4771 125.879 11.4271C125.7 11.3772 125.485 11.3523 125.22 11.3523H122.227V13.4242H125.22C125.694 13.4242 126.039 13.3369 126.267 13.1621C126.489 12.9874 126.606 12.7315 126.606 12.382L126.599 12.3945Z" fill="white"/>
<path d="M144.84 14.3104C144.741 14.4103 144.618 14.4602 144.483 14.4602H144.316C144.15 14.4602 144.021 14.3978 143.928 14.273L139.876 9.04311H139.858V14.0046C139.858 14.1232 139.815 14.2293 139.722 14.3229C139.636 14.4165 139.525 14.4602 139.402 14.4602H139.316C139.199 14.4602 139.094 14.4165 139.002 14.3229C138.91 14.2293 138.866 14.1232 138.866 14.0046V7.86357C138.866 7.72627 138.916 7.60769 139.02 7.5016C139.125 7.3955 139.242 7.34557 139.378 7.34557H139.624C139.698 7.34557 139.766 7.3643 139.839 7.40174C139.913 7.43919 139.969 7.48287 140.018 7.54528L143.984 12.6816H144.009V7.80116C144.009 7.67634 144.052 7.56401 144.144 7.47663C144.236 7.38926 144.341 7.33933 144.458 7.33933H144.544C144.667 7.33933 144.778 7.38302 144.865 7.47663C144.951 7.56401 145 7.67634 145 7.80116V13.9547C145 14.092 144.951 14.2106 144.846 14.3104H144.84Z" fill="white"/>
<path d="M125.959 24.8389C125.86 24.9388 125.737 24.9887 125.602 24.9887H125.436C125.269 24.9887 125.14 24.9263 125.048 24.8015L120.995 19.5716H120.977V24.5331C120.977 24.6517 120.934 24.7578 120.842 24.8514C120.755 24.945 120.644 24.9887 120.521 24.9887H120.435C120.318 24.9887 120.213 24.945 120.121 24.8514C120.029 24.7578 119.986 24.6517 119.986 24.5331V18.3983C119.986 18.261 120.035 18.1424 120.14 18.0363C120.244 17.9302 120.361 17.8803 120.497 17.8803H120.743C120.817 17.8803 120.885 17.899 120.959 17.9364C121.032 17.9739 121.088 18.0176 121.137 18.08L125.103 23.2163H125.128V18.3358C125.128 18.211 125.171 18.0987 125.263 18.0113C125.355 17.9239 125.46 17.874 125.577 17.874H125.663C125.787 17.874 125.897 17.9177 125.984 18.0113C126.07 18.0987 126.119 18.211 126.119 18.3358V24.4894C126.119 24.6267 126.07 24.7453 125.965 24.8451L125.959 24.8389Z" fill="white"/>
<path d="M110.73 23.6032C110.73 23.728 110.674 23.8466 110.57 23.9652C110.41 24.1399 110.213 24.2959 109.991 24.427C109.769 24.5581 109.529 24.6642 109.264 24.7515C108.999 24.8389 108.722 24.9075 108.433 24.9512C108.137 24.9949 107.836 25.0199 107.528 25.0199C107.066 25.0199 106.622 24.9325 106.191 24.764C105.76 24.5955 105.378 24.3521 105.046 24.0401C104.713 23.728 104.449 23.3598 104.245 22.9229C104.042 22.4923 103.944 22.0055 103.944 21.475C103.944 20.9446 104.036 20.4952 104.221 20.0521C104.405 19.609 104.652 19.2221 104.972 18.8913C105.292 18.5605 105.662 18.2984 106.099 18.1112C106.53 17.9239 107.004 17.8303 107.509 17.8303C107.86 17.8303 108.187 17.8678 108.501 17.9489C108.815 18.03 109.092 18.1237 109.35 18.2422C109.603 18.3546 109.818 18.4731 110.003 18.598C110.182 18.7165 110.317 18.8164 110.397 18.8913C110.471 18.9849 110.508 19.091 110.508 19.2096C110.508 19.3469 110.459 19.4592 110.367 19.5528C110.268 19.6464 110.157 19.6964 110.022 19.6964C109.868 19.6964 109.751 19.6402 109.652 19.5279C109.578 19.4655 109.467 19.3906 109.332 19.3094C109.196 19.2283 109.036 19.1472 108.852 19.0785C108.667 19.0099 108.464 18.9475 108.236 18.8975C108.008 18.8476 107.768 18.8226 107.521 18.8226C107.207 18.8226 106.893 18.8788 106.585 18.9974C106.271 19.1097 105.994 19.2845 105.754 19.5091C105.508 19.7338 105.311 20.0084 105.163 20.3392C105.009 20.67 104.935 21.0507 104.935 21.4813C104.935 21.7871 104.997 22.0929 105.12 22.3987C105.243 22.7045 105.422 22.9729 105.662 23.2163C105.902 23.4597 106.197 23.6531 106.548 23.8029C106.899 23.9527 107.312 24.0276 107.774 24.0276C108.02 24.0276 108.254 24.0026 108.476 23.9589C108.698 23.909 108.907 23.8528 109.098 23.7717C109.289 23.6968 109.455 23.6094 109.597 23.5221C109.738 23.4284 109.849 23.3411 109.923 23.2537C110.015 23.1663 110.126 23.1226 110.243 23.1226C110.36 23.1226 110.453 23.1476 110.52 23.1975C110.588 23.2475 110.637 23.3036 110.668 23.3723C110.705 23.4409 110.724 23.5221 110.73 23.6094V23.6032Z" fill="white"/>
<path d="M118.033 24.4769C118.033 24.608 117.978 24.7266 117.873 24.8327C117.775 24.9388 117.658 24.9887 117.516 24.9887H114.345C114.08 24.9887 113.827 24.945 113.581 24.8576C113.335 24.7702 113.119 24.6392 112.928 24.4707C112.737 24.3022 112.59 24.09 112.473 23.8403C112.362 23.5907 112.3 23.2974 112.3 22.9604C112.3 22.7794 112.325 22.6109 112.368 22.4611C112.411 22.3113 112.473 22.1678 112.54 22.043C112.614 21.9181 112.694 21.7996 112.781 21.6997C112.867 21.5999 112.953 21.5125 113.039 21.4313C112.953 21.3502 112.873 21.2628 112.781 21.163C112.694 21.0631 112.614 20.9508 112.54 20.8197C112.466 20.6887 112.411 20.5514 112.368 20.4016C112.325 20.2518 112.3 20.0833 112.3 19.9023C112.3 19.5716 112.356 19.2782 112.473 19.0224C112.583 18.7727 112.737 18.5605 112.928 18.392C113.119 18.2235 113.335 18.0925 113.581 18.0051C113.827 17.9177 114.08 17.874 114.345 17.874H117.516C117.652 17.874 117.775 17.9239 117.873 18.03C117.972 18.1361 118.027 18.2485 118.033 18.3858C118.033 18.5231 117.99 18.6479 117.886 18.7478C117.781 18.8538 117.658 18.9038 117.522 18.9038H114.351C114.178 18.9038 114.024 18.935 113.895 18.9974C113.766 19.0598 113.661 19.1409 113.575 19.2408C113.489 19.3406 113.427 19.4467 113.384 19.5653C113.341 19.6839 113.316 19.7962 113.316 19.9086C113.316 20.0209 113.341 20.1332 113.384 20.2518C113.427 20.3704 113.495 20.4827 113.575 20.5763C113.661 20.6762 113.766 20.7511 113.895 20.8197C114.024 20.8821 114.172 20.9134 114.351 20.9134H116.962C117.147 20.9134 117.288 20.9695 117.387 21.0756C117.485 21.1817 117.528 21.3003 117.528 21.4376C117.528 21.5749 117.479 21.6935 117.387 21.7996C117.288 21.9057 117.153 21.9618 116.962 21.9618H114.351C114.178 21.9618 114.024 21.993 113.895 22.0554C113.766 22.1179 113.661 22.199 113.575 22.2988C113.489 22.3987 113.427 22.5048 113.384 22.6234C113.341 22.7419 113.316 22.8605 113.316 22.9666C113.316 23.0727 113.341 23.1913 113.384 23.3099C113.427 23.4284 113.495 23.5345 113.575 23.6344C113.661 23.7343 113.766 23.8091 113.895 23.8778C114.024 23.9402 114.172 23.9714 114.351 23.9714H117.522C117.658 23.9714 117.781 24.0213 117.886 24.1274C117.99 24.2335 118.04 24.3521 118.033 24.4894V24.4769Z" fill="white"/>
<path d="M134.359 23.8029C134.199 24.0588 133.983 24.2772 133.706 24.4582C133.429 24.6392 133.109 24.7827 132.733 24.8763C132.363 24.9762 131.963 25.0199 131.538 25.0199C131.083 25.0199 130.633 24.9388 130.19 24.7827C129.746 24.6267 129.352 24.3958 128.995 24.09C128.644 23.7842 128.361 23.4097 128.145 22.9604C127.93 22.511 127.819 21.993 127.819 21.4126C127.819 20.9196 127.911 20.4578 128.096 20.0209C128.281 19.584 128.533 19.2033 128.866 18.8788C129.192 18.5543 129.586 18.2984 130.048 18.1112C130.504 17.9239 131.009 17.8303 131.557 17.8303C131.951 17.8303 132.314 17.8803 132.641 17.9739C132.967 18.0675 133.244 18.1798 133.478 18.3171C133.712 18.4482 133.891 18.5917 134.02 18.7353C134.149 18.8788 134.211 19.0036 134.211 19.1097C134.211 19.247 134.162 19.3594 134.069 19.4592C133.971 19.5591 133.86 19.6028 133.724 19.6028C133.589 19.6028 133.478 19.5528 133.386 19.4592C133.219 19.297 132.998 19.1472 132.721 19.0161C132.45 18.885 132.092 18.8226 131.655 18.8226C131.218 18.8226 130.799 18.8913 130.442 19.0286C130.091 19.1659 129.789 19.3594 129.549 19.5965C129.309 19.8337 129.124 20.1145 128.995 20.439C128.866 20.7636 128.804 21.1006 128.804 21.4626C128.804 21.7996 128.866 22.1241 128.995 22.4299C129.124 22.7419 129.309 23.0103 129.543 23.2475C129.783 23.4846 130.073 23.6718 130.417 23.8154C130.762 23.9589 131.15 24.0276 131.581 24.0276C131.877 24.0276 132.148 23.9964 132.4 23.934C132.647 23.8716 132.862 23.7904 133.041 23.6843C133.219 23.5782 133.361 23.4534 133.46 23.3161C133.564 23.1788 133.614 23.0353 133.614 22.8855V22.1179H131.963C131.828 22.1179 131.711 22.0679 131.612 21.9743C131.514 21.8745 131.464 21.7621 131.464 21.6248C131.464 21.4875 131.514 21.3752 131.612 21.2753C131.711 21.1755 131.828 21.1318 131.963 21.1318H134.094C134.229 21.1318 134.346 21.1817 134.445 21.2753C134.543 21.3752 134.593 21.4875 134.593 21.6248V22.9541C134.593 23.2662 134.513 23.5533 134.359 23.8029Z" fill="white"/>
<path d="M137.573 16.8942C137.573 17.0814 137.512 17.2374 137.389 17.356C137.265 17.4746 137.111 17.5433 136.92 17.5433C136.73 17.5433 136.582 17.4808 136.465 17.356C136.342 17.2312 136.28 17.0752 136.28 16.8942C136.28 16.7132 136.342 16.5447 136.465 16.4199C136.588 16.2951 136.742 16.2327 136.92 16.2327C137.099 16.2327 137.265 16.2951 137.389 16.4199C137.512 16.5447 137.573 16.7007 137.573 16.8942ZM137.296 24.8514C137.21 24.945 137.099 24.9887 136.976 24.9887H136.89C136.773 24.9887 136.668 24.945 136.576 24.8514C136.483 24.7578 136.44 24.6517 136.44 24.5331V18.3296C136.44 18.2048 136.483 18.0925 136.576 18.0051C136.668 17.9177 136.773 17.8678 136.89 17.8678H136.976C137.099 17.8678 137.21 17.9115 137.296 18.0051C137.382 18.0925 137.432 18.2048 137.432 18.3296V24.5331C137.432 24.6517 137.389 24.7578 137.296 24.8514Z" fill="white"/>
<path d="M144.994 24.4644C144.994 24.6017 144.945 24.7266 144.84 24.8327C144.735 24.9388 144.618 24.9887 144.477 24.9887H139.359C139.23 24.9887 139.107 24.9388 139.002 24.8451C138.897 24.7453 138.842 24.6267 138.842 24.4894C138.842 24.3521 138.885 24.2335 138.965 24.1337L143.393 18.8975H139.753C139.618 18.8975 139.495 18.8476 139.39 18.754C139.285 18.6541 139.236 18.5356 139.236 18.3983C139.236 18.261 139.285 18.1361 139.39 18.03C139.495 17.9239 139.612 17.874 139.753 17.874H144.421C144.557 17.874 144.68 17.9239 144.784 18.0238C144.889 18.1237 144.938 18.2422 144.938 18.3858C144.938 18.5106 144.895 18.6229 144.815 18.7228L140.369 23.9652H144.483C144.618 23.9652 144.741 24.0151 144.846 24.1149C144.951 24.2148 145 24.3334 145 24.4769L144.994 24.4644Z" fill="white"/>
<path d="M119.653 35.3923C119.561 35.4734 119.462 35.5171 119.345 35.5171H119.259C119.142 35.5171 119.043 35.4734 118.951 35.3923C118.859 35.3112 118.816 35.1988 118.816 35.0678V32.6463H114.997V35.0678C114.997 35.2051 114.954 35.3112 114.862 35.3923C114.77 35.4734 114.671 35.5171 114.554 35.5171H114.468C114.351 35.5171 114.252 35.4734 114.16 35.3923C114.068 35.3112 114.024 35.1988 114.024 35.0678V31.136C114.024 30.8115 114.055 30.4869 114.123 30.1624C114.191 29.8316 114.326 29.5383 114.529 29.2824C114.733 29.0266 115.028 28.8144 115.404 28.6521C115.786 28.4898 116.285 28.4087 116.9 28.4087C117.516 28.4087 118.021 28.4898 118.397 28.6521C118.779 28.8144 119.068 29.0266 119.271 29.2824C119.474 29.5383 119.61 29.8316 119.678 30.1624C119.745 30.4932 119.776 30.8177 119.776 31.136V35.0678C119.776 35.2051 119.733 35.3112 119.641 35.3923H119.653ZM118.816 31.136C118.816 30.8864 118.785 30.6492 118.729 30.437C118.674 30.2248 118.569 30.0376 118.421 29.8816C118.274 29.7255 118.077 29.607 117.83 29.5196C117.584 29.4322 117.276 29.3885 116.906 29.3885C116.537 29.3885 116.223 29.4322 115.977 29.5196C115.736 29.607 115.539 29.7318 115.392 29.8816C115.244 30.0376 115.139 30.2248 115.084 30.437C115.028 30.6492 114.997 30.8864 114.997 31.136V31.6665H118.816V31.136Z" fill="white"/>
<path d="M110.798 28.908C110.798 28.9766 110.785 29.0453 110.754 29.1264L108.106 35.2113C108.07 35.2987 108.008 35.3673 107.928 35.4235C107.842 35.4797 107.749 35.5109 107.651 35.5109H107.103C107.004 35.5109 106.906 35.4797 106.819 35.4173C106.733 35.3549 106.672 35.2862 106.635 35.1988L104.03 29.1202C104.005 29.064 103.993 28.9954 103.993 28.9142C103.993 28.7769 104.042 28.6521 104.141 28.5522C104.239 28.4524 104.356 28.3962 104.492 28.3962C104.59 28.3962 104.683 28.4274 104.763 28.4836C104.843 28.5398 104.904 28.6147 104.947 28.7083L107.374 34.3688L109.818 28.7083C109.855 28.6209 109.917 28.5522 110.003 28.4898C110.089 28.4274 110.182 28.3962 110.286 28.3962C110.422 28.3962 110.545 28.4462 110.644 28.546C110.742 28.6459 110.798 28.7644 110.798 28.9017V28.908Z" fill="white"/>
<path d="M130.048 34.9929C130.048 35.1239 129.999 35.2425 129.9 35.3486C129.802 35.4547 129.691 35.5046 129.555 35.5046C129.463 35.5046 129.371 35.4797 129.291 35.436C129.21 35.3923 129.149 35.3237 129.1 35.2425L127.067 31.6103L125.263 33.545V35.0491C125.263 35.1864 125.22 35.2987 125.128 35.3798C125.035 35.461 124.931 35.5046 124.814 35.5046H124.727C124.61 35.5046 124.506 35.461 124.413 35.3798C124.321 35.2987 124.278 35.1864 124.278 35.0491V28.8581C124.278 28.7208 124.321 28.6084 124.413 28.5273C124.506 28.4462 124.61 28.4025 124.727 28.4025H124.814C124.931 28.4025 125.035 28.4462 125.128 28.5273C125.22 28.6084 125.263 28.7208 125.263 28.8581V32.0784L128.515 28.5585C128.564 28.5086 128.619 28.4711 128.681 28.4399C128.749 28.4087 128.81 28.3962 128.878 28.3962C129.013 28.3962 129.13 28.4462 129.235 28.5522C129.334 28.6583 129.389 28.7769 129.389 28.9142C129.389 29.0515 129.346 29.1639 129.254 29.2575L127.782 30.8489L129.974 34.737C130.023 34.8181 130.048 34.9055 130.048 34.9866V34.9929Z" fill="white"/>
<path d="M139.735 28.8955C139.735 29.0328 139.692 29.1514 139.587 29.2512C139.482 29.3511 139.365 29.401 139.23 29.401H136.12C135.947 29.401 135.8 29.4322 135.677 29.4946C135.547 29.557 135.449 29.6382 135.362 29.7318C135.282 29.8254 135.215 29.9315 135.172 30.0501C135.128 30.1686 135.104 30.281 135.104 30.3871C135.104 30.4932 135.128 30.6055 135.172 30.7241C135.215 30.8427 135.276 30.9488 135.362 31.0486C135.443 31.1422 135.547 31.2234 135.677 31.2858C135.806 31.3482 135.954 31.3794 136.12 31.3794H138.201C138.386 31.3794 138.522 31.4293 138.614 31.5354C138.706 31.6415 138.756 31.7601 138.756 31.8911C138.756 32.0222 138.706 32.1408 138.614 32.2469C138.522 32.353 138.38 32.4029 138.201 32.4029H136.12C135.947 32.4029 135.8 32.4341 135.677 32.4965C135.547 32.5589 135.449 32.6401 135.362 32.7337C135.282 32.8273 135.215 32.9334 135.172 33.0582C135.128 33.1768 135.104 33.2891 135.104 33.3952V35.0553C135.104 35.1739 135.061 35.28 134.975 35.3736C134.888 35.4672 134.784 35.5109 134.654 35.5109H134.568C134.451 35.5109 134.346 35.4672 134.254 35.3736C134.162 35.28 134.119 35.1739 134.119 35.0553V33.3952C134.119 33.2142 134.143 33.052 134.186 32.9022C134.229 32.7524 134.285 32.6151 134.359 32.4903C134.426 32.3655 134.506 32.2531 134.593 32.1533C134.679 32.0534 134.759 31.966 134.845 31.8911C134.765 31.8163 134.679 31.7289 134.593 31.629C134.506 31.5292 134.433 31.4168 134.359 31.292C134.291 31.1672 134.229 31.0299 134.186 30.8801C134.143 30.7303 134.119 30.5681 134.119 30.3871C134.119 30.0626 134.174 29.7692 134.285 29.5258C134.396 29.2762 134.543 29.0702 134.728 28.908C134.913 28.7395 135.128 28.6147 135.369 28.5273C135.609 28.4399 135.861 28.3962 136.12 28.3962H139.23C139.365 28.3962 139.482 28.4462 139.581 28.546C139.679 28.6459 139.729 28.7644 139.735 28.8955Z" fill="white"/>
<path d="M144.852 35.3673C144.766 35.461 144.655 35.5046 144.532 35.5046H144.446C144.329 35.5046 144.224 35.461 144.132 35.3673C144.039 35.2737 143.996 35.1676 143.996 35.0491V28.8581C143.996 28.7332 144.039 28.6271 144.132 28.5335C144.224 28.4462 144.329 28.3962 144.446 28.3962H144.532C144.655 28.3962 144.76 28.4399 144.852 28.5335C144.945 28.6271 144.988 28.7332 144.988 28.8581V35.0491C144.988 35.1676 144.945 35.2737 144.852 35.3673Z" fill="white"/>
<path d="M16.4238 39.4427C16.4238 40.1791 16.2637 40.7782 15.9435 41.2401C15.6232 41.7019 15.223 42.0576 14.7303 42.3135C14.2377 42.5694 13.6896 42.7379 13.0738 42.8315C12.458 42.9251 11.8545 42.9688 11.2633 42.9688C11.1955 42.9688 10.9554 42.9501 10.5489 42.9189C10.1363 42.8814 9.6991 42.8065 9.23724 42.6942C8.76922 42.5756 8.35662 42.4071 7.99329 42.1762C7.62996 41.9453 7.44521 41.6208 7.44521 41.2089C7.44521 40.9093 7.5499 40.6472 7.75312 40.4287C7.95634 40.2103 8.20883 40.098 8.50442 40.098C8.66453 40.098 8.81232 40.1354 8.9478 40.2041C9.2865 40.435 9.64983 40.5723 10.0255 40.6222C10.4011 40.6659 10.7152 40.6909 10.9615 40.6909H11.3741C11.5589 40.6909 11.7621 40.6721 11.9899 40.6409C12.2178 40.6035 12.4272 40.5411 12.6242 40.4537C12.8151 40.3601 12.9752 40.2415 13.1046 40.0917C13.2277 39.9419 13.2893 39.7422 13.2893 39.4864C13.2893 39.0682 13.1046 38.7624 12.7412 38.5689C12.3779 38.3755 12.0269 38.2756 11.682 38.2756C11.1155 38.2756 10.5797 38.3817 10.0747 38.5877C9.89 38.6314 9.75452 38.6563 9.66215 38.6563C9.52667 38.6563 9.39735 38.6189 9.2865 38.5377C9.1695 38.4566 9.11407 38.338 9.11407 38.1758C9.11407 38.0821 9.14487 37.9885 9.20029 37.9012C9.25571 37.8075 9.31114 37.7139 9.35424 37.6266L11.0293 35.2363C9.95774 35.1676 8.96628 35.0303 8.06103 34.8181C6.78629 34.5186 5.65935 34.1441 4.6802 33.6948C3.70105 33.2454 2.8697 32.7711 2.18615 32.2781C1.50259 31.7851 0.954515 31.3295 0.548076 30.9113C0.184745 30.5431 0 30.1062 0 29.5945C0 29.1327 0.0923724 28.7769 0.270959 28.521C0.455704 28.2652 0.671239 28.0842 0.917566 27.9656C1.18852 27.8283 1.50875 27.7472 1.87208 27.7222C2.12456 27.7222 2.36473 27.7659 2.6049 27.8595C2.84507 27.9531 3.05445 28.0904 3.23919 28.2776C3.67026 28.6022 4.17523 28.9392 4.74178 29.3012C5.30833 29.6569 5.97341 29.9939 6.72471 30.3059C7.476 30.618 8.33199 30.8739 9.30498 31.0861C10.2718 31.292 11.368 31.3981 12.5996 31.3981C13.4864 31.3981 14.4347 31.3107 15.4323 31.136C16.4361 30.9612 17.3475 30.6929 18.1789 30.3247C19.0102 29.9565 19.6999 29.4821 20.2419 28.908C20.7899 28.3338 21.0609 27.6286 21.0609 26.7985C21.0609 25.6939 20.7838 24.8389 20.2234 24.2398C19.663 23.6406 18.9733 23.2038 18.1419 22.9229C17.3106 22.6483 16.4115 22.4861 15.4447 22.4361C14.4778 22.3925 13.5726 22.3675 12.7289 22.3675H8.76922C7.85781 22.3675 6.93409 22.2364 6.0042 21.9681C5.06816 21.706 4.2245 21.294 3.46088 20.7386C2.69727 20.1832 2.0753 19.4779 1.60112 18.6104C1.12078 17.743 0.886775 16.7007 0.886775 15.4775C0.886775 14.0483 1.24395 12.8064 1.96445 11.7579C2.6788 10.7094 3.59021 9.84194 4.69867 9.16168C5.80098 8.48142 7.01414 7.98215 8.33815 7.65762C9.65599 7.33309 10.9307 7.17083 12.1624 7.17083C13.5726 7.17083 14.8104 7.28316 15.8696 7.5016C16.9288 7.72003 17.8402 7.98215 18.6038 8.28171C19.3674 8.58128 19.9894 8.89332 20.4636 9.21785L21.5905 9.97925C22.1386 10.3974 22.4095 10.9279 22.4095 11.5707C22.4095 12.1012 22.2248 12.5505 21.8491 12.9187C21.4735 13.2869 21.0363 13.4742 20.5375 13.4742C20.1988 13.4742 19.8293 13.3618 19.4475 13.1309C18.8563 12.7877 18.3205 12.4819 17.8402 12.2135C17.3598 11.9514 16.861 11.7267 16.3376 11.5582C15.8142 11.3835 15.2353 11.2586 14.5948 11.1775C13.9544 11.0964 13.1846 11.0589 12.2732 11.0589C11.4542 11.0589 10.592 11.1401 9.69294 11.3023C8.79385 11.4646 7.98097 11.7205 7.25431 12.0824C6.52765 12.4382 5.92415 12.9 5.44381 13.4679C4.96348 14.0358 4.72947 14.7099 4.72947 15.49C4.72947 17.5433 6.24437 18.573 9.26803 18.573H12.7843C14.3547 18.573 15.8696 18.6916 17.3229 18.9163C18.7824 19.1472 20.0694 19.5716 21.1964 20.1956C22.3233 20.8197 23.2224 21.6685 23.8937 22.7419C24.5649 23.8154 24.9036 25.1821 24.9036 26.8422C24.9036 28.2527 24.5649 29.4821 23.8813 30.5431C23.1978 31.6041 22.2741 32.484 21.1163 33.1893C19.9524 33.8945 18.61 34.4187 17.0889 34.762C16.0666 34.9929 15.0074 35.1427 13.9113 35.2113L12.8213 36.7341C13.277 36.7341 13.7204 36.7716 14.1514 36.8402C14.5825 36.9089 14.9705 37.0462 15.3153 37.2583C15.654 37.4643 15.9312 37.7451 16.1344 38.1071C16.3376 38.4628 16.4423 38.9184 16.4423 39.4739L16.4238 39.4427Z" fill="white"/>
<path d="M53.6129 30.0438C53.6129 30.5369 53.4035 31.0112 52.991 31.4792C52.3443 32.1782 51.5869 32.7898 50.7063 33.3016C49.8318 33.8134 48.8711 34.2502 47.8366 34.5997C46.802 34.9492 45.6997 35.2113 44.5358 35.3861C43.3719 35.5608 42.1772 35.6482 40.9579 35.6482C39.1351 35.6482 37.3739 35.3112 35.6681 34.6309C33.9622 33.9507 32.4535 33.002 31.1356 31.7726C29.824 30.5431 28.7648 29.0765 27.9704 27.354C27.176 25.6377 26.7757 23.728 26.7757 21.6248C26.7757 19.5216 27.139 17.7367 27.8657 15.983C28.5923 14.2293 29.5838 12.7003 30.8401 11.3897C32.0963 10.0791 33.5804 9.05559 35.2986 8.30668C37.0167 7.55777 38.8765 7.18331 40.884 7.18331C42.2696 7.18331 43.5751 7.33933 44.8068 7.65762C46.0384 7.97591 47.1592 8.3566 48.163 8.81219C49.1667 9.26778 50.0227 9.73585 50.7371 10.2164C51.4514 10.697 51.9687 11.0901 52.2951 11.3897C52.5968 11.7642 52.7446 12.1823 52.7446 12.6504C52.7446 13.1871 52.5537 13.6427 52.1719 14.0171C51.7901 14.3916 51.3344 14.5788 50.8048 14.5788C50.2075 14.5788 49.721 14.3541 49.3515 13.911C49.0497 13.6552 48.631 13.3618 48.0891 13.0373C47.5471 12.7128 46.9128 12.407 46.1862 12.1261C45.4595 11.8453 44.6466 11.6081 43.7476 11.4084C42.8485 11.2087 41.9001 11.1089 40.9148 11.1089C39.6709 11.1089 38.4331 11.3398 37.1953 11.7891C35.9636 12.2447 34.8613 12.9187 33.8945 13.8049C32.9277 14.6911 32.1394 15.7895 31.5421 17.1001C30.9447 18.4107 30.643 19.9148 30.643 21.6186C30.643 22.8356 30.8832 24.0401 31.3697 25.2446C31.8562 26.4491 32.5705 27.5287 33.5127 28.4836C34.4549 29.4447 35.6249 30.2186 37.0228 30.8115C38.4146 31.4044 40.0342 31.7039 41.8816 31.7039C42.8485 31.7039 43.7783 31.6103 44.6651 31.4231C45.5519 31.2358 46.3709 30.9925 47.1222 30.6866C47.8735 30.3808 48.5263 30.0501 49.0928 29.6881C49.6594 29.3261 50.0905 28.9704 50.3922 28.6209C50.7617 28.2714 51.1866 28.0967 51.6731 28.0967C52.1596 28.0967 52.5045 28.1965 52.7816 28.3962C53.0587 28.5959 53.2558 28.8206 53.3666 29.0765C53.5021 29.3573 53.5883 29.6694 53.6068 30.0251L53.6129 30.0438Z" fill="white"/>
<path d="M82.1498 9.35515C82.1498 9.61727 82.0882 9.90435 81.9712 10.2164L71.4777 34.3251C71.3361 34.6621 71.1021 34.943 70.7696 35.1676C70.437 35.3923 70.0737 35.5109 69.6734 35.5109H67.5119C67.1116 35.5109 66.736 35.3923 66.3973 35.1489C66.0524 34.9118 65.8122 34.6247 65.6706 34.2877L55.3557 10.2164C55.2633 9.99797 55.2141 9.72337 55.2141 9.3926C55.2141 8.8434 55.4111 8.36284 55.7991 7.95718C56.187 7.55152 56.6551 7.34557 57.197 7.34557C57.5973 7.34557 57.9606 7.45791 58.2808 7.68882C58.601 7.91974 58.8412 8.20682 59.0075 8.5688L68.6142 30.9862L78.2948 8.5688C78.4365 8.23178 78.6766 7.9447 79.0215 7.70755C79.3663 7.47039 79.7358 7.34557 80.1361 7.34557C80.678 7.34557 81.1522 7.54528 81.5525 7.93846C81.9528 8.33164 82.156 8.80595 82.156 9.35515H82.1498Z" fill="white"/>
<path d="M93.9181 0.574165C93.9181 0.257063 93.6658 0 93.3546 0C93.0434 0 92.7911 0.257063 92.7911 0.574165V42.4258C92.7911 42.7429 93.0434 43 93.3546 43C93.6658 43 93.9181 42.7429 93.9181 42.4258V0.574165Z" fill="white"/>
</svg>
