<svg width="192" height="56" viewBox="0 0 192 56" fill="none" xmlns="http://www.w3.org/2000/svg">
<path d="M143.139 20.2126C143.139 20.4546 143.087 20.6522 142.979 20.8034C142.872 20.9546 142.739 21.0716 142.575 21.1563C142.411 21.2389 142.227 21.2974 142.02 21.3277C141.814 21.3579 141.614 21.374 141.416 21.374C141.393 21.374 141.312 21.368 141.175 21.3579C141.037 21.3458 140.892 21.3216 140.736 21.2833C140.58 21.245 140.44 21.1885 140.319 21.1119C140.198 21.0353 140.137 20.9304 140.137 20.7933C140.137 20.6945 140.171 20.6098 140.24 20.5372C140.309 20.4646 140.392 20.4283 140.491 20.4283C140.544 20.4283 140.594 20.4404 140.639 20.4626C140.752 20.5392 140.873 20.5836 140.999 20.5997C141.124 20.6139 141.229 20.6219 141.312 20.6219H141.45C141.511 20.6219 141.579 20.6159 141.656 20.6058C141.733 20.5937 141.802 20.5735 141.867 20.5433C141.931 20.513 141.984 20.4727 142.027 20.4243C142.069 20.3739 142.089 20.3094 142.089 20.2247C142.089 20.0876 142.029 19.9867 141.907 19.9222C141.786 19.8577 141.666 19.8254 141.553 19.8254C141.363 19.8254 141.183 19.8597 141.017 19.9283C140.956 19.9424 140.91 19.9505 140.879 19.9505C140.833 19.9505 140.792 19.9363 140.754 19.9101C140.716 19.8839 140.697 19.8436 140.697 19.7912C140.697 19.7609 140.707 19.7307 140.726 19.7004C140.744 19.6702 140.762 19.6399 140.776 19.6097L141.337 18.8253C140.979 18.8031 140.647 18.7567 140.343 18.6882C139.916 18.5894 139.54 18.4664 139.212 18.3192C138.885 18.172 138.608 18.0167 138.379 17.8534C138.15 17.69 137.968 17.5408 137.831 17.4037C137.709 17.2827 137.649 17.1375 137.649 16.9722C137.649 16.821 137.679 16.702 137.74 16.6193C137.8 16.5367 137.873 16.4762 137.956 16.4379C138.047 16.3915 138.154 16.3653 138.276 16.3572C138.359 16.3572 138.442 16.3733 138.521 16.4036C138.601 16.4338 138.67 16.4802 138.731 16.5407C138.875 16.6476 139.043 16.7585 139.233 16.8754C139.423 16.9924 139.643 17.1033 139.894 17.2061C140.145 17.3089 140.432 17.3936 140.756 17.4622C141.08 17.5308 141.446 17.565 141.859 17.565C142.156 17.565 142.472 17.5368 142.805 17.4803C143.141 17.4239 143.447 17.3352 143.724 17.2122C144.001 17.0912 144.232 16.9359 144.414 16.7464C144.596 16.5568 144.687 16.3249 144.687 16.0527C144.687 15.6877 144.594 15.4075 144.408 15.2099C144.222 15.0122 143.989 14.8691 143.712 14.7783C143.435 14.6876 143.133 14.6352 142.809 14.619C142.486 14.6049 142.184 14.5969 141.901 14.5969H140.576C140.27 14.5969 139.963 14.5525 139.651 14.4658C139.34 14.3791 139.057 14.244 138.802 14.0625C138.547 13.881 138.338 13.6471 138.179 13.3628C138.019 13.0785 137.938 12.7357 137.938 12.3324C137.938 11.8626 138.057 11.4553 138.298 11.1085C138.539 10.7636 138.842 10.4793 139.21 10.2555C139.579 10.0317 139.985 9.86634 140.426 9.76149C140.867 9.65462 141.294 9.60219 141.705 9.60219C142.176 9.60219 142.589 9.63848 142.943 9.71108C143.297 9.78367 143.6 9.86836 143.855 9.96716C144.11 10.066 144.319 10.1688 144.478 10.2737L144.855 10.5237C145.037 10.6608 145.128 10.8342 145.128 11.048C145.128 11.2234 145.065 11.3706 144.94 11.4916C144.814 11.6126 144.667 11.6731 144.501 11.6731C144.387 11.6731 144.264 11.6347 144.135 11.5601C143.936 11.4472 143.758 11.3464 143.598 11.2577C143.439 11.171 143.271 11.0984 143.097 11.0419C142.921 10.9855 142.726 10.9431 142.514 10.9169C142.302 10.8907 142.043 10.8766 141.737 10.8766C141.464 10.8766 141.177 10.9028 140.875 10.9572C140.574 11.0097 140.303 11.0964 140.058 11.2133C139.815 11.3303 139.613 11.4835 139.453 11.669C139.293 11.8545 139.212 12.0763 139.212 12.3344C139.212 13.0099 139.718 13.3467 140.732 13.3467H141.907C142.433 13.3467 142.939 13.385 143.426 13.4596C143.914 13.5362 144.345 13.6754 144.723 13.881C145.1 14.0867 145.401 14.365 145.626 14.7178C145.85 15.0707 145.961 15.5204 145.961 16.0668C145.961 16.5306 145.848 16.9359 145.619 17.2847C145.391 17.6336 145.083 17.924 144.695 18.1558C144.307 18.3877 143.857 18.5591 143.348 18.6741C143.006 18.7507 142.652 18.7991 142.285 18.8213L141.919 19.3213C142.071 19.3213 142.221 19.3334 142.364 19.3556C142.508 19.3778 142.637 19.4242 142.753 19.4927C142.866 19.5613 142.959 19.654 143.026 19.771C143.095 19.8879 143.129 20.0392 143.129 20.2207L143.139 20.2126Z" fill="#27ADE4"/>
<path d="M156.366 18.67C156.247 18.7769 156.111 18.8313 155.957 18.8313H155.842C155.688 18.8313 155.553 18.7769 155.433 18.67C155.314 18.5632 155.255 18.422 155.255 18.2466V15.0969H150.198V18.2466C150.198 18.422 150.139 18.5632 150.02 18.67C149.9 18.7769 149.765 18.8313 149.611 18.8313H149.496C149.342 18.8313 149.206 18.7769 149.087 18.67C148.968 18.5632 148.909 18.422 148.909 18.2466V13.1249C148.909 12.7055 148.953 12.282 149.04 11.8525C149.127 11.425 149.31 11.0439 149.581 10.7072C149.852 10.3704 150.24 10.0962 150.742 9.88247C151.244 9.66873 151.905 9.56186 152.724 9.56186C153.544 9.56186 154.205 9.66873 154.707 9.88247C155.209 10.0962 155.595 10.3704 155.868 10.7072C156.139 11.0439 156.319 11.425 156.408 11.8525C156.497 12.28 156.54 12.7034 156.54 13.1249V18.2466C156.54 18.422 156.481 18.5632 156.362 18.67H156.366ZM155.257 13.1249C155.257 12.7962 155.219 12.4937 155.142 12.2135C155.065 11.9352 154.93 11.6932 154.733 11.4916C154.537 11.2899 154.278 11.1306 153.952 11.0157C153.627 10.9008 153.218 10.8443 152.728 10.8443C152.239 10.8443 151.82 10.9008 151.498 11.0157C151.177 11.1306 150.918 11.2879 150.724 11.4916C150.527 11.6932 150.392 11.9352 150.315 12.2135C150.238 12.4917 150.2 12.7962 150.2 13.1249V13.8125H155.257V13.1249Z" fill="#27ADE4"/>
<path d="M179.878 18.67C179.758 18.7769 179.623 18.8313 179.469 18.8313H179.354C179.2 18.8313 179.065 18.7769 178.945 18.67C178.826 18.5632 178.767 18.422 178.767 18.2466V15.0969H173.71V18.2466C173.71 18.422 173.651 18.5632 173.532 18.67C173.412 18.7769 173.277 18.8313 173.123 18.8313H173.008C172.854 18.8313 172.718 18.7769 172.599 18.67C172.48 18.5632 172.421 18.422 172.421 18.2466V13.1249C172.421 12.7055 172.465 12.282 172.552 11.8525C172.639 11.425 172.821 11.0439 173.093 10.7072C173.364 10.3704 173.752 10.0962 174.254 9.88247C174.755 9.66873 175.417 9.56186 176.236 9.56186C177.056 9.56186 177.717 9.66873 178.219 9.88247C178.721 10.0962 179.107 10.3704 179.38 10.7072C179.651 11.0439 179.831 11.425 179.92 11.8525C180.009 12.28 180.052 12.7034 180.052 13.1249V18.2466C180.052 18.422 179.993 18.5632 179.874 18.67H179.878ZM178.769 13.1249C178.769 12.7962 178.731 12.4937 178.654 12.2135C178.577 11.9352 178.441 11.6932 178.245 11.4916C178.049 11.2899 177.79 11.1306 177.464 11.0157C177.139 10.9008 176.73 10.8443 176.24 10.8443C175.751 10.8443 175.332 10.9008 175.01 11.0157C174.689 11.1306 174.43 11.2879 174.236 11.4916C174.039 11.6932 173.904 11.9352 173.827 12.2135C173.75 12.4917 173.712 12.7962 173.712 13.1249V13.8125H178.769V13.1249Z" fill="#27ADE4"/>
<path d="M168.984 16.1414C168.984 16.583 168.903 16.9722 168.741 17.3089C168.579 17.6457 168.357 17.926 168.075 18.1498C167.794 18.3756 167.46 18.545 167.076 18.6599C166.692 18.7749 166.273 18.8313 165.822 18.8313H161.207C161.025 18.8313 160.865 18.7648 160.732 18.6297C160.596 18.4946 160.529 18.3373 160.529 18.1558L160.542 10.2515C160.542 10.07 160.606 9.91272 160.738 9.77762C160.869 9.64252 161.025 9.57598 161.207 9.57598H165.822C166.162 9.57598 166.495 9.62639 166.821 9.72318C167.147 9.82198 167.436 9.97523 167.689 10.1849C167.942 10.3946 168.146 10.6568 168.302 10.9734C168.456 11.2899 168.535 11.665 168.535 12.0985C168.535 12.3506 168.506 12.5744 168.452 12.768C168.397 12.9615 168.328 13.1329 168.249 13.2842C168.17 13.4334 168.081 13.5645 167.982 13.6754C167.883 13.7863 167.794 13.881 167.715 13.9597C167.843 14.0222 167.98 14.1149 168.132 14.2379C168.282 14.3609 168.421 14.5142 168.549 14.6997C168.676 14.8852 168.781 15.0989 168.864 15.3389C168.947 15.5809 168.99 15.847 168.99 16.1394L168.984 16.1414ZM167.199 12.1005C167.199 11.7295 167.088 11.4412 166.866 11.2355C166.643 11.0298 166.295 10.927 165.82 10.927H161.861V13.4636H165.82C166.279 13.4636 166.625 13.3406 166.853 13.0966C167.084 12.8527 167.197 12.5199 167.197 12.1005H167.199ZM167.651 16.1414C167.651 15.9358 167.62 15.7503 167.562 15.5849C167.503 15.4196 167.402 15.2764 167.258 15.1574C167.114 15.0385 166.926 14.9477 166.694 14.8852C166.459 14.8227 166.168 14.7904 165.82 14.7904H161.861V17.4924H165.82C166.447 17.4924 166.908 17.3795 167.205 17.1537C167.503 16.9278 167.651 16.5911 167.651 16.1394V16.1414Z" fill="#27ADE4"/>
<path d="M191.8 18.6357C191.666 18.7648 191.508 18.8293 191.328 18.8293H191.104C190.883 18.8293 190.711 18.7467 190.586 18.5833L185.221 11.7678H185.196V18.2304C185.196 18.3877 185.138 18.5248 185.02 18.6458C184.903 18.7668 184.762 18.8273 184.598 18.8273H184.48C184.323 18.8273 184.185 18.7668 184.064 18.6458C183.942 18.5248 183.881 18.3857 183.881 18.2304V10.2434C183.881 10.0639 183.948 9.90667 184.082 9.77359C184.215 9.6405 184.371 9.57396 184.553 9.57396H184.883C184.978 9.57396 185.071 9.59816 185.166 9.64454C185.261 9.69091 185.338 9.75342 185.401 9.83206L190.649 16.5185H190.683V10.1607C190.683 9.99741 190.744 9.85626 190.865 9.73931C190.986 9.62235 191.126 9.56388 191.282 9.56388H191.399C191.563 9.56388 191.705 9.62235 191.822 9.73931C191.939 9.85626 191.998 9.99741 191.998 10.1607V18.172C191.998 18.3514 191.931 18.5067 191.798 18.6357H191.8Z" fill="#27ADE4"/>
<path d="M166.797 32.3474C166.663 32.4765 166.505 32.541 166.325 32.541H166.101C165.88 32.541 165.708 32.4583 165.583 32.295L160.218 25.4795H160.194V31.9421C160.194 32.0994 160.135 32.2365 160.018 32.3575C159.9 32.4785 159.759 32.539 159.595 32.539H159.477C159.32 32.539 159.182 32.4785 159.061 32.3575C158.939 32.2365 158.879 32.0974 158.879 31.9421V23.9551C158.879 23.7756 158.945 23.6183 159.079 23.4852C159.212 23.3522 159.368 23.2856 159.55 23.2856H159.88C159.975 23.2856 160.068 23.3098 160.163 23.3562C160.258 23.4026 160.335 23.4651 160.398 23.5437L165.646 30.2302H165.68V23.8724C165.68 23.7091 165.741 23.5679 165.862 23.451C165.984 23.334 166.123 23.2755 166.279 23.2755H166.396C166.56 23.2755 166.702 23.334 166.819 23.451C166.936 23.5679 166.995 23.7091 166.995 23.8724V31.8836C166.995 32.0631 166.928 32.2183 166.795 32.3474H166.797Z" fill="#27ADE4"/>
<path d="M146.631 30.7423C146.631 30.9036 146.562 31.0609 146.423 31.2142C146.206 31.444 145.953 31.6437 145.66 31.8131C145.367 31.9824 145.047 32.1236 144.701 32.2385C144.355 32.3535 143.987 32.4402 143.596 32.4986C143.208 32.5571 142.807 32.5853 142.401 32.5853C141.792 32.5853 141.203 32.4744 140.633 32.2506C140.062 32.0288 139.558 31.7142 139.117 31.311C138.678 30.9077 138.326 30.4237 138.059 29.8591C137.794 29.2945 137.661 28.6674 137.661 27.9758C137.661 27.2842 137.782 26.6974 138.025 26.1207C138.268 25.544 138.599 25.0419 139.018 24.6104C139.439 24.1809 139.935 23.8421 140.509 23.5961C141.084 23.3501 141.705 23.2271 142.376 23.2271C142.84 23.2271 143.277 23.2796 143.689 23.3824C144.102 23.4852 144.476 23.6123 144.81 23.7635C145.146 23.9127 145.433 24.068 145.672 24.2253C145.911 24.3825 146.085 24.5116 146.192 24.6104C146.291 24.7334 146.342 24.8725 146.342 25.0258C146.342 25.2032 146.279 25.3524 146.152 25.4754C146.024 25.5984 145.872 25.6589 145.694 25.6589C145.494 25.6589 145.332 25.5863 145.209 25.4391C145.108 25.3545 144.968 25.2597 144.786 25.1508C144.604 25.0439 144.393 24.9431 144.151 24.8504C143.908 24.7576 143.637 24.679 143.335 24.6144C143.034 24.5499 142.718 24.5156 142.387 24.5156C141.97 24.5156 141.555 24.5902 141.144 24.7395C140.732 24.8887 140.364 25.1105 140.04 25.4029C139.716 25.6952 139.453 26.0562 139.253 26.4857C139.053 26.9152 138.951 27.4112 138.951 27.9718C138.951 28.371 139.032 28.7683 139.194 29.1635C139.356 29.5587 139.595 29.9136 139.91 30.2302C140.226 30.5447 140.616 30.8008 141.084 30.9964C141.549 31.192 142.091 31.2908 142.708 31.2908C143.032 31.2908 143.341 31.2606 143.639 31.198C143.936 31.1376 144.209 31.0569 144.46 30.9561C144.711 30.8573 144.93 30.7464 145.12 30.6274C145.308 30.5084 145.454 30.3915 145.553 30.2765C145.676 30.1616 145.818 30.1031 145.98 30.1031C146.141 30.1031 146.257 30.1354 146.35 30.2019C146.443 30.2665 146.508 30.3431 146.546 30.4258C146.593 30.5185 146.619 30.6213 146.627 30.7363L146.631 30.7423Z" fill="#27ADE4"/>
<path d="M156.299 31.8776C156.291 32.051 156.222 32.2063 156.091 32.3393C155.959 32.4744 155.804 32.541 155.621 32.541H151.426C151.078 32.541 150.74 32.4845 150.414 32.3696C150.088 32.2546 149.801 32.0873 149.552 31.8655C149.303 31.6437 149.103 31.3694 148.951 31.0428C148.802 30.7141 148.725 30.333 148.725 29.8995C148.725 29.6615 148.755 29.4458 148.814 29.2482C148.873 29.0506 148.951 28.8691 149.047 28.7037C149.142 28.5384 149.247 28.3892 149.362 28.2601C149.477 28.1291 149.591 28.0141 149.7 27.9113C149.589 27.8084 149.475 27.6915 149.362 27.5624C149.247 27.4314 149.142 27.2842 149.047 27.1188C148.951 26.9535 148.875 26.772 148.814 26.5744C148.755 26.3768 148.725 26.159 148.725 25.9231C148.725 25.4896 148.8 25.1085 148.951 24.7798C149.101 24.4511 149.301 24.1769 149.552 23.9571C149.801 23.7353 150.088 23.5679 150.414 23.453C150.74 23.338 151.076 23.2816 151.426 23.2816H155.621C155.804 23.2816 155.959 23.3481 156.091 23.4832C156.222 23.6183 156.291 23.7716 156.299 23.945C156.307 24.1265 156.243 24.2837 156.103 24.4188C155.963 24.5539 155.804 24.6205 155.621 24.6205H151.426C151.195 24.6205 150.995 24.6628 150.825 24.7455C150.655 24.8282 150.513 24.933 150.402 25.0601C150.291 25.1871 150.206 25.3262 150.147 25.4815C150.088 25.6347 150.058 25.784 150.058 25.9251C150.058 26.0663 150.088 26.2175 150.147 26.3748C150.206 26.532 150.291 26.6752 150.402 26.8022C150.513 26.9293 150.653 27.0341 150.825 27.1168C150.995 27.1995 151.195 27.2418 151.426 27.2418H154.885C155.13 27.2418 155.316 27.3104 155.443 27.4495C155.571 27.5887 155.634 27.7439 155.634 27.9173C155.634 28.0907 155.571 28.248 155.443 28.3851C155.316 28.5243 155.13 28.5928 154.885 28.5928H151.426C151.195 28.5928 150.995 28.6352 150.825 28.7178C150.655 28.8005 150.513 28.9054 150.402 29.0324C150.291 29.1594 150.206 29.3006 150.147 29.4599C150.088 29.6172 150.058 29.7684 150.058 29.9095C150.058 30.0507 150.088 30.1999 150.147 30.3532C150.206 30.5064 150.291 30.6476 150.402 30.7746C150.513 30.9016 150.653 31.0065 150.825 31.0892C150.995 31.1718 151.195 31.2142 151.426 31.2142H155.621C155.804 31.2142 155.963 31.2807 156.103 31.4158C156.24 31.5509 156.307 31.7082 156.299 31.8897V31.8776Z" fill="#27ADE4"/>
<path d="M177.918 30.9984C177.709 31.3291 177.422 31.6134 177.056 31.8514C176.69 32.0893 176.261 32.2728 175.771 32.3998C175.281 32.5269 174.755 32.5894 174.191 32.5894C173.59 32.5894 172.995 32.4865 172.409 32.2829C171.822 32.0792 171.296 31.7788 170.829 31.3836C170.361 30.9883 169.985 30.4983 169.7 29.9136C169.415 29.3288 169.271 28.6574 169.271 27.8951C169.271 27.258 169.392 26.653 169.635 26.0844C169.878 25.5158 170.218 25.0197 170.653 24.5963C171.088 24.1728 171.61 23.8381 172.215 23.5921C172.819 23.3461 173.485 23.2231 174.211 23.2231C174.735 23.2231 175.215 23.2856 175.646 23.4086C176.079 23.5316 176.449 23.6788 176.756 23.8522C177.066 24.0256 177.305 24.2051 177.474 24.3946C177.644 24.5822 177.729 24.7455 177.729 24.8846C177.729 25.0621 177.667 25.2133 177.539 25.3403C177.412 25.4674 177.26 25.5299 177.082 25.5299C176.904 25.5299 176.754 25.4694 176.631 25.3444C176.406 25.1286 176.115 24.9371 175.751 24.7677C175.389 24.5983 174.917 24.5136 174.339 24.5136C173.76 24.5136 173.202 24.6044 172.736 24.7838C172.269 24.9653 171.877 25.2113 171.557 25.5218C171.237 25.8323 170.993 26.1993 170.823 26.6167C170.653 27.0362 170.568 27.4798 170.568 27.9496C170.568 28.3872 170.653 28.8086 170.823 29.2119C170.993 29.6152 171.235 29.9721 171.551 30.2786C171.867 30.5871 172.253 30.8331 172.708 31.0166C173.163 31.2021 173.677 31.2928 174.248 31.2928C174.64 31.2928 175.002 31.2525 175.33 31.1718C175.658 31.0912 175.939 30.9823 176.176 30.8432C176.41 30.704 176.596 30.5447 176.732 30.3653C176.868 30.1838 176.934 29.9983 176.934 29.8067V28.8025H174.747C174.569 28.8025 174.416 28.74 174.284 28.613C174.153 28.486 174.088 28.3347 174.088 28.1573C174.088 27.9798 174.153 27.8286 174.284 27.7016C174.416 27.5745 174.569 27.512 174.747 27.512H177.572C177.75 27.512 177.903 27.5745 178.035 27.7016C178.166 27.8286 178.231 27.9798 178.231 28.1573V29.8874C178.231 30.2947 178.128 30.6637 177.92 30.9944L177.918 30.9984Z" fill="#27ADE4"/>
<path d="M182.176 22.0012C182.176 22.2431 182.095 22.4448 181.935 22.6061C181.775 22.7674 181.569 22.846 181.316 22.846C181.063 22.846 180.871 22.7654 180.709 22.6061C180.547 22.4468 180.469 22.2451 180.469 22.0012C180.469 21.7572 180.55 21.5454 180.709 21.3841C180.869 21.2228 181.071 21.1442 181.316 21.1442C181.561 21.1442 181.773 21.2248 181.935 21.3841C182.095 21.5454 182.176 21.7491 182.176 22.0012ZM181.812 32.3615C181.695 32.4825 181.553 32.543 181.387 32.543H181.27C181.112 32.543 180.972 32.4825 180.851 32.3615C180.73 32.2405 180.669 32.1014 180.669 31.9441V23.8684C180.669 23.703 180.73 23.5639 180.851 23.4449C180.972 23.328 181.112 23.2695 181.27 23.2695H181.387C181.553 23.2695 181.693 23.328 181.812 23.4449C181.929 23.5619 181.988 23.703 181.988 23.8684V31.9441C181.988 32.1014 181.929 32.2405 181.812 32.3615Z" fill="#27ADE4"/>
<path d="M192 31.8635C192 32.047 191.933 32.2042 191.798 32.3393C191.662 32.4744 191.502 32.541 191.32 32.541H184.541C184.365 32.541 184.209 32.4785 184.07 32.3514C183.93 32.2244 183.861 32.0691 183.861 31.8877C183.861 31.7062 183.916 31.5509 184.029 31.4239L189.89 24.6064H185.067C184.883 24.6064 184.725 24.5439 184.59 24.4168C184.454 24.2898 184.387 24.1345 184.387 23.953C184.387 23.7716 184.454 23.6123 184.59 23.4772C184.725 23.3421 184.885 23.2755 185.067 23.2755H191.249C191.432 23.2755 191.591 23.3401 191.727 23.4711C191.862 23.6022 191.929 23.7595 191.929 23.9409C191.929 24.1002 191.873 24.2454 191.761 24.3805L185.876 31.2101H191.32C191.502 31.2101 191.662 31.2747 191.798 31.4057C191.933 31.5368 192 31.6941 192 31.8756V31.8635Z" fill="#27ADE4"/>
<path d="M158.448 46.0893C158.328 46.1962 158.193 46.2506 158.039 46.2506H157.924C157.77 46.2506 157.634 46.1962 157.515 46.0893C157.396 45.9824 157.337 45.8413 157.337 45.6659V42.5162H152.279V45.6659C152.279 45.8413 152.221 45.9824 152.101 46.0893C151.982 46.1962 151.846 46.2506 151.693 46.2506H151.577C151.424 46.2506 151.288 46.1962 151.169 46.0893C151.049 45.9824 150.991 45.8413 150.991 45.6659V40.5441C150.991 40.1247 151.035 39.7013 151.122 39.2718C151.209 38.8443 151.391 38.4632 151.662 38.1265C151.933 37.7897 152.322 37.5155 152.824 37.3017C153.325 37.088 153.987 36.9811 154.806 36.9811C155.625 36.9811 156.287 37.088 156.789 37.3017C157.29 37.5155 157.677 37.7897 157.95 38.1265C158.221 38.4632 158.401 38.8443 158.49 39.2718C158.579 39.6993 158.622 40.1227 158.622 40.5441V45.6659C158.622 45.8413 158.563 45.9824 158.444 46.0893H158.448ZM157.339 40.5441C157.339 40.2155 157.301 39.913 157.224 39.6327C157.147 39.3545 157.011 39.1125 156.815 38.9108C156.619 38.7092 156.36 38.5499 156.034 38.435C155.708 38.32 155.3 38.2636 154.81 38.2636C154.321 38.2636 153.902 38.32 153.58 38.435C153.259 38.5499 153 38.7072 152.805 38.9108C152.609 39.1125 152.474 39.3545 152.397 39.6327C152.32 39.911 152.281 40.2155 152.281 40.5441V41.2317H157.339V40.5441Z" fill="#27ADE4"/>
<path d="M146.722 37.6445C146.722 37.7312 146.702 37.826 146.663 37.9289L143.155 45.8554C143.109 45.9663 143.028 46.0591 142.919 46.1337C142.807 46.2083 142.686 46.2466 142.55 46.2466H141.828C141.695 46.2466 141.569 46.2062 141.454 46.1276C141.339 46.049 141.258 45.9542 141.211 45.8433L137.762 37.9289C137.73 37.8583 137.715 37.7675 137.715 37.6566C137.715 37.4752 137.78 37.3179 137.912 37.1848C138.041 37.0517 138.199 36.9832 138.379 36.9832C138.512 36.9832 138.634 37.0215 138.741 37.0961C138.848 37.1707 138.929 37.2675 138.984 37.3864L142.196 44.7585L145.431 37.3864C145.478 37.2755 145.559 37.1808 145.674 37.1021C145.789 37.0235 145.913 36.9832 146.048 36.9832C146.23 36.9832 146.388 37.0477 146.522 37.1787C146.655 37.3078 146.724 37.4651 146.724 37.6445H146.722Z" fill="#27ADE4"/>
<path d="M172.213 45.5771C172.213 45.7485 172.148 45.9038 172.018 46.0409C171.889 46.178 171.737 46.2466 171.565 46.2466C171.44 46.2466 171.324 46.2163 171.219 46.1579C171.114 46.0994 171.029 46.0147 170.966 45.9058L168.274 41.1712L165.886 43.6898V45.6477C165.886 45.8272 165.826 45.9723 165.704 46.0812C165.583 46.1901 165.443 46.2446 165.288 46.2446H165.17C165.012 46.2446 164.875 46.1901 164.754 46.0812C164.632 45.9723 164.571 45.8272 164.571 45.6477V37.5861C164.571 37.4066 164.632 37.2614 164.754 37.1525C164.875 37.0436 165.014 36.9892 165.17 36.9892H165.288C165.443 36.9892 165.583 37.0436 165.704 37.1525C165.826 37.2614 165.886 37.4066 165.886 37.5861V41.7802L170.189 37.1989C170.252 37.1364 170.327 37.086 170.412 37.0457C170.499 37.0073 170.584 36.9872 170.671 36.9872C170.851 36.9872 171.009 37.0557 171.14 37.1929C171.274 37.33 171.341 37.4873 171.341 37.6667C171.341 37.8462 171.282 37.9954 171.165 38.1123L169.212 40.1872L172.115 45.2505C172.178 45.3594 172.208 45.4682 172.208 45.5791L172.213 45.5771Z" fill="#27ADE4"/>
<path d="M185.039 37.6345C185.047 37.8139 184.982 37.9672 184.846 38.1002C184.711 38.2313 184.553 38.2979 184.373 38.2979H180.252C180.026 38.2979 179.829 38.3382 179.663 38.4209C179.495 38.5015 179.358 38.6044 179.249 38.7294C179.139 38.8544 179.057 38.9915 178.998 39.1427C178.939 39.294 178.911 39.4391 178.911 39.5783C178.911 39.7174 178.939 39.8646 178.998 40.0199C179.057 40.1751 179.139 40.3143 179.249 40.4393C179.358 40.5643 179.495 40.6651 179.663 40.7478C179.831 40.8285 180.028 40.8708 180.252 40.8708H183.008C183.248 40.8708 183.432 40.9394 183.556 41.0745C183.679 41.2096 183.742 41.3628 183.742 41.5342C183.742 41.7056 183.679 41.8589 183.556 41.9939C183.43 42.1291 183.248 42.1976 183.008 42.1976H180.252C180.026 42.1976 179.829 42.2379 179.663 42.3206C179.495 42.4013 179.358 42.5041 179.249 42.6291C179.139 42.7541 179.057 42.8933 178.998 43.0485C178.939 43.2038 178.911 43.351 178.911 43.4901V45.6538C178.911 45.809 178.852 45.9461 178.735 46.0671C178.617 46.1881 178.478 46.2466 178.314 46.2466H178.197C178.041 46.2466 177.903 46.1861 177.782 46.0671C177.661 45.9461 177.602 45.809 177.602 45.6538V43.4901C177.602 43.2582 177.63 43.0445 177.689 42.8509C177.748 42.6574 177.822 42.4779 177.918 42.3166C178.011 42.1532 178.114 42.0081 178.227 41.881C178.34 41.754 178.452 41.6391 178.559 41.5382C178.45 41.4374 178.338 41.3225 178.227 41.1954C178.114 41.0684 178.011 40.9212 177.918 40.7599C177.824 40.5966 177.748 40.4191 177.689 40.2256C177.63 40.032 177.602 39.8182 177.602 39.5863C177.602 39.1609 177.675 38.7858 177.824 38.4632C177.972 38.1406 178.168 37.8724 178.413 37.6546C178.658 37.4368 178.941 37.2735 179.259 37.1606C179.578 37.0477 179.908 36.9912 180.25 36.9912H184.371C184.549 36.9912 184.703 37.0578 184.832 37.1888C184.96 37.3199 185.029 37.4711 185.037 37.6425L185.039 37.6345Z" fill="#27ADE4"/>
<path d="M191.82 46.0631C191.703 46.1841 191.561 46.2446 191.397 46.2446H191.28C191.122 46.2446 190.984 46.1841 190.863 46.0631C190.742 45.9421 190.681 45.803 190.681 45.6477V37.5861C190.681 37.4227 190.742 37.2816 190.863 37.1646C190.984 37.0477 191.124 36.9892 191.28 36.9892H191.397C191.561 36.9892 191.703 37.0477 191.82 37.1646C191.937 37.2816 191.996 37.4227 191.996 37.5861V45.6477C191.996 45.805 191.937 45.9421 191.82 46.0631Z" fill="#27ADE4"/>
<path d="M21.7539 51.3643C21.7539 52.3261 21.5435 53.1064 21.1207 53.7073C20.6979 54.3082 20.1638 54.774 19.5164 55.1047C18.867 55.4354 18.1367 55.6612 17.3234 55.7802C16.5101 55.8992 15.711 55.9597 14.9261 55.9597C14.8351 55.9597 14.5195 55.9375 13.9773 55.8911C13.4351 55.8468 12.8545 55.748 12.2354 55.5987C11.6164 55.4475 11.0661 55.2217 10.5846 54.9232C10.1011 54.6228 9.86037 54.2014 9.86037 53.661C9.86037 53.2698 9.99591 52.933 10.267 52.6467C10.5381 52.3604 10.8699 52.2192 11.2623 52.2192C11.4727 52.2192 11.669 52.2636 11.8511 52.3543C12.3022 52.6548 12.7776 52.8342 13.2753 52.8947C13.773 52.9552 14.1877 52.9855 14.5195 52.9855H15.0616C15.3024 52.9855 15.5735 52.9633 15.8749 52.9169C16.1763 52.8725 16.4555 52.7878 16.7125 52.6689C16.9674 52.5479 17.1798 52.3906 17.3457 52.195C17.5116 51.9994 17.5945 51.7373 17.5945 51.4066C17.5945 50.8662 17.3538 50.4669 16.8703 50.2129C16.3888 49.9568 15.9214 49.8298 15.4683 49.8298C14.7137 49.8298 14.0056 49.9649 13.342 50.2351C13.1013 50.2956 12.9192 50.3258 12.7999 50.3258C12.6198 50.3258 12.4519 50.2734 12.3022 50.1685C12.1505 50.0637 12.0756 49.9044 12.0756 49.6947C12.0756 49.5737 12.114 49.4547 12.1889 49.3337C12.2638 49.2127 12.3325 49.0938 12.3932 48.9728L14.6085 45.8635C13.1903 45.7727 11.8794 45.5933 10.6736 45.3231C8.98438 44.9339 7.49339 44.4439 6.19662 43.8591C4.89984 43.2724 3.7993 42.6574 2.89499 42.0121C1.99069 41.3668 1.26643 40.772 0.724253 40.2316C0.242766 39.7517 0 39.181 0 38.5197C0 37.9188 0.11936 37.453 0.362127 37.1223C0.60287 36.7916 0.888121 36.5516 1.22192 36.4004C1.58405 36.2209 2.00485 36.1161 2.48836 36.0858C2.82014 36.0858 3.14383 36.1463 3.46145 36.2653C3.77704 36.3863 4.05622 36.5658 4.29899 36.8057C4.87151 37.2271 5.53508 37.6707 6.28765 38.1345C7.04023 38.6003 7.91621 39.0359 8.90953 39.4412C9.90487 39.8465 11.0418 40.1852 12.3244 40.4554C13.605 40.7256 15.0596 40.8607 16.6882 40.8607C17.8636 40.8607 19.1138 40.7478 20.4409 40.522C21.7681 40.2961 22.9799 39.9433 24.0804 39.4633C25.181 38.9834 26.0934 38.3664 26.8156 37.6163C27.5398 36.8662 27.8999 35.9487 27.8999 34.8679C27.8999 33.4262 27.5297 32.3151 26.7913 31.5328C26.0529 30.7524 25.1324 30.1818 24.0339 29.8208C22.9333 29.4599 21.7418 29.2502 20.4612 29.1897C19.1786 29.1292 17.9809 29.0989 16.8662 29.0989H11.6204C10.4147 29.0989 9.19276 28.9255 7.9587 28.5807C6.72261 28.2359 5.59981 27.7016 4.59031 26.9817C3.58081 26.2598 2.75945 25.3363 2.12623 24.2091C1.49301 23.082 1.17742 21.7229 1.17742 20.1299C1.17742 18.2667 1.65284 16.6536 2.60165 15.2845C3.55046 13.9173 4.7562 12.7901 6.21887 11.9049C7.68154 11.0197 9.28582 10.3664 11.0337 9.94498C12.7817 9.52355 14.4709 9.31384 16.0974 9.31384C17.9667 9.31384 19.6014 9.45701 21.0034 9.74132C22.4053 10.0277 23.6111 10.3644 24.6206 10.7556C25.6301 11.1468 26.4514 11.5521 27.0847 11.9715L28.5777 12.9636C29.3019 13.504 29.662 14.1956 29.662 15.0364C29.662 15.7281 29.4132 16.3148 28.9155 16.7948C28.4178 17.2747 27.8372 17.5166 27.1737 17.5166C26.7225 17.5166 26.239 17.3674 25.7272 17.067C24.9422 16.6173 24.2342 16.2181 23.601 15.8733C22.9677 15.5284 22.3042 15.2421 21.6123 15.0163C20.9184 14.7904 20.1496 14.6271 19.306 14.5202C18.4624 14.4154 17.4367 14.363 16.231 14.363C15.1466 14.363 14.0076 14.4678 12.8181 14.6775C11.6265 14.8872 10.5502 15.226 9.58523 15.6918C8.62023 16.1576 7.82113 16.7585 7.18791 17.4945C6.5547 18.2304 6.2391 19.1096 6.2391 20.1319C6.2391 22.8057 8.24395 24.1426 12.2536 24.1426H16.9107C18.9904 24.1426 20.9953 24.2938 22.9253 24.5923C24.8532 24.8927 26.5647 25.4492 28.0577 26.2598C29.5508 27.0704 30.7403 28.1754 31.6305 29.5728C32.5186 30.9702 32.9636 32.7507 32.9636 34.9143C32.9636 36.7472 32.5125 38.3543 31.6082 39.7376C30.7039 41.1208 29.482 42.2682 27.9465 43.1857C26.409 44.1031 24.6307 44.7847 22.6117 45.2364C21.2542 45.5368 19.8543 45.7324 18.4057 45.8231L16.9593 47.8053C17.5621 47.8053 18.1488 47.8496 18.7234 47.9404C19.2959 48.0311 19.8077 48.2106 20.2609 48.4808C20.712 48.751 21.0742 49.118 21.3452 49.5858C21.6163 50.0516 21.7519 50.6444 21.7519 51.3663L21.7539 51.3643Z" fill="#004379"/>
<path d="M70.9971 39.1306C70.9971 39.7698 70.7219 40.3929 70.1737 41.0019C69.3179 41.9153 68.3105 42.7057 67.1512 43.3752C65.99 44.0447 64.7236 44.6072 63.3499 45.0629C61.9763 45.5187 60.5177 45.8614 58.9761 46.0893C57.4345 46.3172 55.8545 46.4321 54.2361 46.4321C51.8246 46.4321 49.488 45.9905 47.2302 45.1093C44.9705 44.2281 42.9717 42.988 41.2319 41.389C39.492 39.792 38.0961 37.8744 37.0421 35.6382C35.9881 33.402 35.4621 30.9137 35.4621 28.1754C35.4621 25.4371 35.9436 23.1102 36.9046 20.8276C37.8655 18.545 39.1785 16.5528 40.8434 14.8489C42.5064 13.145 44.4769 11.8061 46.7508 10.8322C49.0247 9.85828 51.4908 9.37232 54.145 9.37232C55.9759 9.37232 57.7097 9.57799 59.3423 9.98934C60.9749 10.4007 62.4557 10.9028 63.7849 11.4956C65.112 12.0884 66.249 12.6974 67.1958 13.3205C68.1425 13.9456 68.8284 14.4537 69.2572 14.8489C69.6538 15.3369 69.852 15.8833 69.852 16.4923C69.852 17.192 69.6012 17.7868 69.0974 18.2728C68.5937 18.7608 67.9908 19.0027 67.2888 19.0027C66.4938 19.0027 65.8545 18.7144 65.3649 18.1357C64.9684 17.801 64.41 17.4219 63.6938 16.9944C62.9757 16.5689 62.1361 16.1737 61.1751 15.8067C60.2142 15.4397 59.1379 15.1292 57.9463 14.8711C56.7568 14.613 55.5045 14.4839 54.1916 14.4839C52.5428 14.4839 50.9021 14.7804 49.2695 15.3732C47.6369 15.966 46.1782 16.8411 44.8956 17.9965C43.613 19.154 42.5752 20.5836 41.7821 22.2875C40.9871 23.9914 40.5926 25.9554 40.5926 28.1754C40.5926 29.7583 40.9122 31.3331 41.5535 32.8999C42.1948 34.4667 43.1396 35.8741 44.3919 37.1223C45.6442 38.3704 47.1918 39.3807 49.0388 40.157C50.8859 40.9333 53.0303 41.3205 55.4722 41.3205C56.7548 41.3205 57.9828 41.1995 59.1582 40.9555C60.3335 40.7115 61.4159 40.3929 62.4092 39.9977C63.4005 39.6025 64.2704 39.1689 65.0189 38.6971C65.7675 38.2253 66.34 37.7615 66.7365 37.3058C67.2241 36.8501 67.7905 36.6202 68.4298 36.6202C69.0691 36.6202 69.5283 36.7492 69.8945 37.0073C70.2607 37.2654 70.5196 37.5619 70.6734 37.8966C70.8575 38.2616 70.9627 38.6729 70.993 39.1286L70.9971 39.1306Z" fill="#004379"/>
<path d="M108.784 12.1832C108.784 12.526 108.705 12.9011 108.549 13.3064L94.6526 44.702C94.4645 45.1396 94.1509 45.5045 93.7139 45.8009C93.2749 46.0974 92.7914 46.2466 92.2594 46.2466H89.3967C88.8647 46.2466 88.3711 46.0893 87.9179 45.7788C87.4647 45.4682 87.1431 45.0932 86.9549 44.6556L73.2953 13.3064C73.1698 13.0261 73.1071 12.6671 73.1071 12.2296C73.1071 11.5117 73.3661 10.8887 73.8819 10.3583C74.3978 9.82803 75.0169 9.56388 75.7371 9.56388C76.2691 9.56388 76.7466 9.71309 77.1694 10.0095C77.5922 10.3059 77.9119 10.687 78.1324 11.1548L90.8533 40.3526L103.669 11.1548C103.858 10.7193 104.177 10.3442 104.632 10.0317C105.086 9.72116 105.579 9.56388 106.111 9.56388C106.831 9.56388 107.457 9.82198 107.989 10.3362C108.521 10.8504 108.786 11.4674 108.786 12.1852L108.784 12.1832Z" fill="#004379"/>
<path d="M124.373 0.744059C124.373 0.333126 124.039 0 123.627 0C123.215 0 122.88 0.333126 122.88 0.744059V55.2559C122.88 55.6669 123.215 56 123.627 56C124.039 56 124.373 55.6669 124.373 55.2559V0.744059Z" fill="#004379"/>
</svg>
