<svg width="12" height="6" viewBox="0 0 12 6" fill="none" xmlns="http://www.w3.org/2000/svg">
<path
        d="M6.09699 5.99547C6.31354 5.97441 6.51832 5.88579 6.68307 5.74185L11.1097 1.89746C11.2191 1.80764 11.3096 1.69653 11.3759 1.5707C11.4421 1.44486 11.4829 1.30684 11.4957 1.16479C11.5084 1.02274 11.493 0.879538 11.4502 0.743634C11.4075 0.60773 11.3383 0.48188 11.2468 0.373512C11.1552 0.265145 11.0432 0.176457 10.9173 0.112682C10.7913 0.0489078 10.6541 0.0113398 10.5136 0.00219634C10.3731 -0.0069471 10.2322 0.0125192 10.0993 0.0594458C9.96635 0.106372 9.84404 0.179808 9.73956 0.275419L5.99837 3.52599L2.2568 0.275419C2.15221 0.180586 2.02998 0.107875 1.89728 0.0615519C1.76458 0.015229 1.62408 -0.00377223 1.48403 0.00566302C1.34399 0.0150983 1.20721 0.0527804 1.08173 0.116497C0.956255 0.180214 0.844601 0.268683 0.753323 0.376712C0.662045 0.484741 0.592982 0.610154 0.550187 0.745592C0.507392 0.88103 0.491727 1.02376 0.504111 1.16542C0.516495 1.30707 0.556679 1.4448 0.622304 1.5705C0.68793 1.69621 0.777675 1.80737 0.886273 1.89746L5.31292 5.74185C5.42014 5.83525 5.54481 5.90584 5.67951 5.94941C5.81421 5.99299 5.95619 6.00865 6.09699 5.99547Z"
        fill="#004B85" />
</svg>